<?xml version="1.0" encoding="utf-8"?>
<!-- Generator: Adobe Illustrator 16.0.0, SVG Export Plug-In . SVG Version: 6.00 Build 0)  -->
<!DOCTYPE svg PUBLIC "-//W3C//DTD SVG 1.1//EN" "http://www.w3.org/Graphics/SVG/1.1/DTD/svg11.dtd">
<svg version="1.1" id="Layer_1" xmlns="http://www.w3.org/2000/svg" xmlns:xlink="http://www.w3.org/1999/xlink" x="0px" y="0px"
	 width="24px" height="21px" viewBox="0 0 24 21" enable-background="new 0 0 24 21" xml:space="preserve">
<g>
	<path fill="#FFFFFF" d="M11.272,15.662c0.201,0.2,0.451,0.301,0.703,0.301c0.25,0,0.551-0.101,0.701-0.301l4.56-4.761
		c0.401-0.401,0.352-1.052-0.05-1.403c-0.401-0.4-1.053-0.351-1.403,0.05l-2.856,2.957V2.131c0-0.551-0.451-1.002-1.002-1.002
		s-1.002,0.451-1.002,1.002v10.374L8.166,9.548c-0.4-0.401-1.002-0.401-1.402-0.05C6.362,9.899,6.362,10.5,6.713,10.901
		L11.272,15.662z"/>
	<path fill="#FFFFFF" d="M18.991,3.384c-0.552,0-1.003,0.451-1.003,1.002c0,0.551,0.451,1.002,1.003,1.002
		c1.102,0,2.004,0.902,2.004,2.005v8.97c0,1.403-1.553,1.503-2.004,1.503H5.009c-0.451,0-2.004-0.1-2.004-1.503v-8.97
		c0-1.103,0.902-2.005,2.004-2.005c0.552,0,1.003-0.451,1.003-1.002c0-0.551-0.451-1.002-1.003-1.002C2.804,3.384,1,5.188,1,7.394
		v8.97c0,2.055,1.653,3.508,4.009,3.508h13.982c2.354,0,4.009-1.454,4.009-3.508v-8.97C23,5.139,21.196,3.384,18.991,3.384z"/>
</g>
</svg>
