<?xml version="1.0" encoding="utf-8"?>
<!-- Generator: Adobe Illustrator 16.0.0, SVG Export Plug-In . SVG Version: 6.00 Build 0)  -->
<!DOCTYPE svg PUBLIC "-//W3C//DTD SVG 1.1//EN" "http://www.w3.org/Graphics/SVG/1.1/DTD/svg11.dtd">
<svg version="1.1" id="Layer_1" xmlns="http://www.w3.org/2000/svg" xmlns:xlink="http://www.w3.org/1999/xlink" x="0px" y="0px"
	 width="30px" height="30px" viewBox="0 0 30 30" enable-background="new 0 0 30 30" xml:space="preserve">
<g>
	<path fill="#DDCD37" d="M23.02,29c-0.308,0-0.583-0.068-0.857-0.208l-6.895-3.737c-0.24-0.138-0.514-0.138-0.754,0l-6.93,3.634
		c-0.754,0.38-1.714,0.207-2.229-0.45c-0.343-0.416-0.479-0.968-0.377-1.489l1.372-7.785c0.034-0.278-0.034-0.521-0.24-0.727
		l-5.557-5.538c-0.515-0.484-0.686-1.211-0.446-1.903c0.206-0.658,0.789-1.143,1.475-1.247l7.752-1.072
		c0.274-0.034,0.48-0.207,0.617-0.449l3.465-7.026C13.725,0.38,14.342,0,15.062,0c0.721,0,1.338,0.38,1.646,1.038l3.43,7.094
		c0.104,0.242,0.344,0.417,0.584,0.45l7.717,1.177c0.686,0.104,1.269,0.588,1.475,1.246c0.206,0.658,0.034,1.384-0.48,1.869
		l-5.625,5.502c-0.172,0.172-0.274,0.449-0.24,0.692l1.269,7.787c0.104,0.554-0.068,1.072-0.412,1.488
		C24.083,28.758,23.569,29,23.02,29z M14.891,23.949c0.31,0,0.583,0.068,0.857,0.207l6.895,3.703
		c0.344,0.173,0.755,0.104,0.995-0.207c0.138-0.174,0.206-0.416,0.172-0.658l-1.27-7.752c-0.103-0.588,0.103-1.211,0.549-1.627
		l5.626-5.468c0.239-0.208,0.308-0.518,0.206-0.831c-0.103-0.311-0.343-0.518-0.652-0.554L20.55,9.585
		c-0.583-0.104-1.097-0.485-1.372-1.004l-3.431-7.095c-0.137-0.276-0.411-0.449-0.72-0.449s-0.583,0.173-0.721,0.449l-3.464,7.027
		c-0.275,0.553-0.79,0.898-1.373,1.003l-7.752,1.073c-0.309,0.035-0.548,0.243-0.651,0.554c-0.103,0.311-0.035,0.588,0.206,0.831
		l5.557,5.537c0.411,0.416,0.617,1.038,0.515,1.627l-1.373,7.786c-0.035,0.243,0.035,0.485,0.172,0.657
		c0.239,0.277,0.651,0.381,0.994,0.208l6.963-3.634C14.308,24.017,14.616,23.949,14.891,23.949z"/>
</g>
</svg>
