<?xml version="1.0" encoding="utf-8"?>
<!-- Generator: Adobe Illustrator 16.0.0, SVG Export Plug-In . SVG Version: 6.00 Build 0)  -->
<!DOCTYPE svg PUBLIC "-//W3C//DTD SVG 1.1//EN" "http://www.w3.org/Graphics/SVG/1.1/DTD/svg11.dtd">
<svg version="1.1" id="Layer_1" xmlns="http://www.w3.org/2000/svg" xmlns:xlink="http://www.w3.org/1999/xlink" x="0px" y="0px"
	 width="167px" height="143px" viewBox="0 0 167 143" enable-background="new 0 0 167 143" xml:space="preserve">
<g>
	<g>
		<path fill="#5D675B" d="M46.421,61.566l-4.427,5.366v7.564h-1.788V53.972h4.72c2.609,0,3.842,1.173,3.842,2.991
			C48.768,58.664,48.122,59.485,46.421,61.566z M45.365,60.423c1.262-1.554,1.555-2.141,1.555-3.226
			c0-1.055-0.675-1.524-1.965-1.524h-2.961v8.854L45.365,60.423z"/>
		<path fill="#5D675B" d="M50.29,64.175c0-7.33,1.817-10.614,5.395-10.614c3.606,0,5.396,3.284,5.396,10.614
			c0,7.331-1.789,10.614-5.396,10.614C52.107,74.789,50.29,71.506,50.29,64.175z M59.262,64.175c0-3.635-0.47-8.913-3.577-8.913
			c-3.106,0-3.577,5.277-3.577,8.913c0,3.636,0.471,8.914,3.577,8.914C58.792,73.089,59.262,67.812,59.262,64.175z"/>
		<path fill="#5D675B" d="M65.976,72.766h5.013v1.73h-6.801V53.972h1.788V72.766z"/>
		<path fill="#F78E69" d="M73.832,53.972h1.789v20.524h-1.789V53.972z"/>
		<path fill="#F78E69" d="M84.005,55.673v18.823h-1.789V55.673h-3.665v-1.701h9.119v1.701H84.005z"/>
		<path fill="#F78E69" d="M90.571,53.972h1.789v20.524h-1.789V53.972z"/>
		<path fill="#5D675B" d="M105.084,72.033c-0.851,1.76-2.316,2.756-4.135,2.756c-3.605,0-5.424-3.371-5.424-10.643
			c0-7.037,1.936-10.585,5.717-10.585c1.291,0,2.991,0.938,3.842,2.786l-1.35,0.938c-0.967-1.759-2.022-2.022-2.785-2.022
			c-3.107,0-3.577,4.779-3.577,8.444c0,4.134,0.47,9.353,3.725,9.353c1.319,0,1.935-0.733,2.521-1.847L105.084,72.033z"/>
		<path fill="#5D675B" d="M115.08,69.219c0,3.312-1.876,5.57-4.661,5.57c-2.053,0-3.226-0.82-4.456-2.668l1.582-0.88
			c0.998,1.378,1.73,1.73,2.962,1.73c2.463,0,2.756-2.316,2.756-3.548c0-2.082-0.792-3.284-2.756-5.189
			c-1.964-1.906-3.431-3.694-3.46-6.48c-0.029-2.609,1.555-4.193,3.489-4.193c1.671,0,2.697,0.822,3.519,2.698l-1.7,0.704
			c-0.587-1.202-0.997-1.583-1.818-1.583c-1.085,0-1.7,0.909-1.671,2.345c0.028,2.053,1.261,3.431,2.814,4.985
			C113.615,64.645,115.08,66.346,115.08,69.219z"/>
		<path fill="#5D675B" d="M120.01,61.183h1.161v13.313h-1.161V61.183z"/>
		<path fill="#5D675B" d="M129.994,61.183v13.313h-1.159v-7.36l-3.499-4.184v11.544h-1.16V61.183h1.16l3.499,4.184v-4.184H129.994z"
			/>
		<path fill="#5D675B" d="M49.107,85.178v20.397H47.33V94.299l-5.36-6.411v17.688h-1.778V85.178h1.778l5.36,6.41v-6.41H49.107z"/>
		<path fill="#5D675B" d="M63.997,100.68c0,3.117-1.603,5.157-4.896,5.157c-3.205,0-4.953-1.807-4.953-4.982V85.178h1.777v15.473
			c0,2.594,1.34,3.555,3.35,3.555c1.691,0,2.944-0.961,2.944-3.555V85.178h1.777V100.68z"/>
		<path fill="#5D675B" d="M81.479,85.178v20.397h-1.777v-17.6l-4.459,6.41l-4.428-6.381v17.57h-1.777V85.178h1.922l4.342,6.207
			l4.342-6.207H81.479z"/>
		<path fill="#5D675B" d="M93.189,91.442c1.865,1.429,3.09,3.118,3.09,6.353c0,3.759-2.215,7.78-7.635,7.78h-1.952V85.178h5.303
			c2.128,0,3.206,1.166,3.206,2.594c0,1.194-0.643,2.01-1.574,3.146L93.189,91.442z M88.47,86.868v7.925l4.108-5.012
			c0.496-0.611,0.845-1.193,0.845-1.806c0-0.642-0.407-1.107-1.69-1.107H88.47z M89.17,103.885c2.447,0,5.272-2.068,5.272-6.061
			c0-2.71-1.106-4.109-2.389-4.982l-3.584,4.342v6.701H89.17z"/>
		<path fill="#5D675B" d="M99.57,85.178h6.265v1.69h-4.487v3.525h2.768v1.573h-2.768v11.889h4.487v1.72H99.57V85.178z"/>
		<path fill="#5D675B" d="M113.264,95.872l-1.807,2.185v7.519h-1.777V85.178h4.691c2.594,0,3.817,1.166,3.817,3.118
			c0,1.544-0.642,2.36-2.331,4.429l-1.312,1.603l4.605,10.694l-1.604,0.815L113.264,95.872z M111.457,95.668l3.352-4.08
			c1.252-1.544,1.544-2.127,1.544-3.204c0-1.05-0.67-1.516-1.952-1.516h-2.943V95.668z"/>
		<path fill="#88D877" d="M126.287,105.809v2.01h-1.689v-2.01c-1.486-0.233-2.447-1.078-3.468-2.594l1.573-0.875
			c0.991,1.37,1.719,1.72,2.943,1.72c2.447,0,2.738-2.302,2.738-3.525c0-1.516-0.785-2.71-2.738-4.604
			c-1.952-1.895-3.409-3.234-3.438-6.061c-0.029-2.098,0.99-3.525,2.39-3.992v-2.068h1.689v1.923
			c1.312,0.204,2.186,1.021,2.885,2.652l-1.689,0.698c-0.583-1.194-0.99-1.572-1.807-1.572c-1.078,0-1.69,0.902-1.661,2.33
			c0.028,2.099,1.253,3.031,2.798,4.574c1.922,1.924,3.379,3.613,3.379,5.916C130.191,103.331,128.647,105.459,126.287,105.809z"/>
	</g>
	<g>
		<g>
			<path fill="#F78E69" d="M83.088,33.681c-2.109,0-3.83,1.707-3.83,3.82c0,1.05,0.402,2.555,1.055,3.871
				c0.327,0.646,0.716,1.24,1.18,1.696c0.452,0.443,0.993,0.772,1.596,0.772c0.604,0,1.129-0.33,1.594-0.772
				c0.452-0.456,0.842-1.05,1.168-1.696c0.653-1.315,1.054-2.821,1.054-3.871C86.903,35.388,85.184,33.681,83.088,33.681
				L83.088,33.681z M83.088,34.389c1.721,0,3.101,1.392,3.101,3.112c0,0.847-0.365,2.341-0.966,3.542
				c-0.303,0.607-0.666,1.151-1.043,1.519c-0.377,0.366-0.741,0.556-1.092,0.556c-0.365,0-0.729-0.19-1.105-0.556
				c-0.363-0.368-0.742-0.912-1.043-1.519c-0.602-1.201-0.966-2.695-0.966-3.542C79.974,35.78,81.355,34.389,83.088,34.389
				L83.088,34.389z M73.156,54.412V51.87c0-0.391,0.314-0.695,0.703-0.695l0,0h3.051c0.05,0.013,0.101,0.013,0.15,0h12.054
				c0.05,0.013,0.101,0.013,0.151,0h3.037c0.402,0,0.705,0.304,0.705,0.695v2.542h0.701V51.87c0-0.746-0.576-1.341-1.307-1.404
				v-3.339c0-1.265-0.613-1.949-1.129-2.417c0,0,0-0.012-0.013-0.025l-1.795-1.416c0.05-0.38-0.126-0.772-0.466-0.961l-0.853-0.493
				c-0.452-0.266-1.042-0.101-1.292,0.342c-0.264,0.455-0.102,1.037,0.35,1.303l0.841,0.48c0.341,0.203,0.741,0.165,1.042-0.063
				l1.709,1.367l0.025,0.013c0.464,0.43,0.878,0.847,0.878,1.872v3.327h-2.185c-0.227-3.125-3.038-5.591-6.428-5.591
				c-3.404,0-6.203,2.467-6.441,5.591h-2.172v-3.327c0-1.024,0.402-1.442,0.866-1.872h0.011c0-0.013,0.014-0.013,0.014-0.013
				l1.72-1.367c0.29,0.229,0.704,0.266,1.042,0.063l0.842-0.48c0.453-0.253,0.613-0.848,0.351-1.303
				c-0.199-0.329-0.575-0.507-0.94-0.468l0,0c-0.125,0.013-0.251,0.063-0.364,0.126l-0.841,0.493
				c-0.352,0.189-0.516,0.568-0.451,0.949l-1.809,1.429c-0.013,0.013-0.013,0.025-0.025,0.025c-0.516,0.468-1.129,1.151-1.129,2.417
				v3.339c-0.729,0.063-1.306,0.657-1.306,1.404v2.542H73.156z M78.469,42.396c0.086-0.013,0.174,0.025,0.225,0.113
				c0.076,0.114,0.038,0.265-0.089,0.329l-0.841,0.493c-0.111,0.063-0.25,0.026-0.312-0.088c-0.075-0.127-0.051-0.253,0.074-0.33
				l0.854-0.493C78.404,42.409,78.43,42.396,78.469,42.396L78.469,42.396z M87.607,42.409c0.062-0.012,0.127,0,0.177,0.026
				l0.854,0.48c0.125,0.076,0.151,0.203,0.087,0.33c-0.074,0.113-0.213,0.138-0.327,0.074l-0.84-0.48
				c-0.113-0.064-0.163-0.203-0.087-0.329C87.507,42.459,87.558,42.422,87.607,42.409L87.607,42.409z M83.088,45.571
				c3.038,0,5.499,2.176,5.726,4.883H77.361C77.588,47.748,80.049,45.571,83.088,45.571L83.088,45.571z"/>
			<path fill="#F78E69" d="M93.952,54.655h-1.188V51.87c0-0.262-0.193-0.452-0.461-0.452h-3.037c0.025,0.007-0.1,0.015-0.178,0
				H77.061c0.03,0.008-0.121,0.015-0.211-0.008l-2.99,0.008c-0.258,0-0.46,0.199-0.46,0.452v2.785h-1.188V51.87
				c0-0.788,0.547-1.446,1.305-1.612v-3.131c0-1.321,0.612-2.054,1.21-2.596l0.075-0.063l1.666-1.319
				c-0.021-0.441,0.202-0.844,0.592-1.055l0.834-0.489c0.164-0.091,0.317-0.144,0.462-0.158c0.448-0.05,0.931,0.185,1.173,0.584
				c0.164,0.283,0.204,0.609,0.117,0.922c-0.084,0.31-0.283,0.564-0.559,0.718l-0.838,0.479c-0.34,0.204-0.797,0.214-1.148,0.024
				l-1.505,1.196v0.128h-0.158c-0.437,0.412-0.719,0.775-0.719,1.629v3.084h1.708c0.363-3.153,3.243-5.591,6.662-5.591
				c3.422,0,6.298,2.438,6.648,5.591h1.721v-3.084c0-0.936-0.375-1.3-0.778-1.673l-0.034-0.022l-1.572-1.258
				c-0.355,0.19-0.799,0.183-1.15-0.026l-0.838-0.478c-0.571-0.337-0.768-1.07-0.439-1.635c0.305-0.541,1.077-0.753,1.626-0.43
				l0.851,0.493c0.372,0.207,0.602,0.622,0.596,1.06l1.789,1.438c0.574,0.536,1.141,1.263,1.141,2.532v3.131
				c0.758,0.166,1.306,0.824,1.306,1.612V54.655z M93.25,54.169h0.216V51.87c0-0.609-0.466-1.108-1.084-1.162l-0.222-0.019v-3.562
				c0-1.128-0.505-1.742-1.051-2.236L91.03,44.81l-1.823-1.436l0.018-0.136c0.039-0.294-0.1-0.583-0.344-0.718l-0.855-0.495
				c-0.326-0.193-0.781-0.065-0.959,0.251c-0.196,0.338-0.078,0.774,0.262,0.974l0.838,0.479c0.252,0.15,0.548,0.127,0.776-0.046
				l0.15-0.114l1.855,1.485c0.581,0.526,0.995,0.995,0.995,2.074v3.57h-2.654l-0.016-0.226c-0.218-3.009-2.936-5.365-6.186-5.365
				c-3.247,0-5.971,2.356-6.199,5.366l-0.018,0.225h-2.639v-3.57c0-1.041,0.391-1.529,0.876-1.987v-0.127l0.167-0.008l1.809-1.438
				l0.151,0.118c0.212,0.168,0.53,0.188,0.767,0.046l0.846-0.483c0.163-0.091,0.279-0.241,0.33-0.424
				c0.051-0.187,0.027-0.381-0.068-0.546c-0.143-0.236-0.424-0.379-0.705-0.348c-0.078,0.008-0.172,0.041-0.271,0.097l-0.836,0.49
				c-0.255,0.138-0.383,0.411-0.334,0.699l0.023,0.142l-1.892,1.494L75.04,44.94l-0.047,0.004c-0.522,0.486-0.991,1.095-0.991,2.183
				v3.562l-0.222,0.019c-0.618,0.054-1.084,0.553-1.084,1.162v2.299h0.217V51.87c0-0.526,0.416-0.938,0.946-0.938h18.443
				c0.531,0,0.947,0.412,0.947,0.938V54.169z M89.077,50.697H77.098l0.022-0.263c0.238-2.862,2.86-5.105,5.968-5.105
				s5.729,2.243,5.967,5.105L89.077,50.697z M77.633,50.211h10.909c-0.353-2.486-2.694-4.396-5.454-4.396
				S77.986,47.725,77.633,50.211z M83.088,44.083c-0.602,0-1.195-0.284-1.766-0.842c-0.442-0.435-0.855-1.026-1.226-1.759
				c-0.657-1.323-1.081-2.885-1.081-3.98c0-2.24,1.826-4.063,4.072-4.063c2.238,0,4.059,1.823,4.059,4.063
				c0,1.096-0.424,2.658-1.078,3.979c-0.367,0.726-0.775,1.316-1.214,1.759C84.256,43.808,83.68,44.083,83.088,44.083z
				 M83.088,33.923c-1.978,0-3.586,1.605-3.586,3.577c0,1.026,0.403,2.503,1.029,3.763c0.346,0.684,0.727,1.233,1.131,1.63
				c0.944,0.925,1.846,0.954,2.852-0.002c0.398-0.401,0.777-0.951,1.12-1.629c0.624-1.257,1.026-2.734,1.026-3.761
				C86.66,35.528,85.058,33.923,83.088,33.923z M77.648,43.605c-0.17,0-0.326-0.093-0.41-0.244c-0.141-0.239-0.076-0.51,0.162-0.654
				l0.857-0.496c0.052-0.026,0.117-0.058,0.211-0.058l0.033-0.002c0.168,0,0.318,0.09,0.402,0.24
				c0.065,0.097,0.089,0.236,0.055,0.365c-0.033,0.129-0.123,0.238-0.245,0.3l-0.827,0.485
				C77.812,43.583,77.73,43.605,77.648,43.605z M88.525,43.596c-0.084,0-0.169-0.022-0.246-0.064l-0.842-0.482
				c-0.115-0.065-0.197-0.171-0.23-0.295c-0.033-0.124-0.014-0.254,0.054-0.369c0.085-0.118,0.183-0.186,0.288-0.212l0.109-0.013
				c0.081,0,0.162,0.02,0.236,0.057l0.862,0.485c0.237,0.144,0.309,0.403,0.186,0.65C88.836,43.515,88.687,43.596,88.525,43.596z
				 M87.658,42.404l-0.003,0.243l0.862,0.461l-0.853-0.462l-0.007,0V42.404z M83.088,43.36c-0.426,0-0.842-0.205-1.275-0.625
				c-0.395-0.399-0.78-0.96-1.09-1.584c-0.651-1.299-0.992-2.82-0.992-3.65c0-1.85,1.506-3.354,3.357-3.354
				c1.844,0,3.344,1.505,3.344,3.354c0,0.829-0.341,2.349-0.992,3.651c-0.329,0.661-0.706,1.209-1.09,1.583
				C83.922,43.15,83.497,43.36,83.088,43.36z M83.088,34.632c-1.584,0-2.871,1.287-2.871,2.869c0,0.755,0.329,2.214,0.939,3.434
				c0.284,0.571,0.647,1.101,0.998,1.457c0.654,0.635,1.174,0.658,1.856-0.004c0.34-0.332,0.693-0.848,0.994-1.452
				c0.611-1.222,0.94-2.681,0.94-3.434C85.945,35.918,84.664,34.632,83.088,34.632z"/>
		</g>
	</g>
</g>
</svg>
