<?xml version="1.0" encoding="utf-8"?>
<!-- Generator: Adobe Illustrator 16.0.0, SVG Export Plug-In . SVG Version: 6.00 Build 0)  -->
<!DOCTYPE svg PUBLIC "-//W3C//DTD SVG 1.1//EN" "http://www.w3.org/Graphics/SVG/1.1/DTD/svg11.dtd">
<svg version="1.1" id="Layer_1" xmlns="http://www.w3.org/2000/svg" xmlns:xlink="http://www.w3.org/1999/xlink" x="0px" y="0px"
	 width="167px" height="143px" viewBox="0 0 167 143" enable-background="new 0 0 167 143" xml:space="preserve">
<g>
	<g>
		<path fill="#F78E69" stroke="#F78E69" stroke-width="0.5068" stroke-miterlimit="10" d="M88.586,32.628
			c-2.202,0-3.998,1.779-3.998,3.984c0,1.097,0.42,2.666,1.102,4.039c0.341,0.673,0.746,1.294,1.23,1.769
			c0.472,0.463,1.038,0.806,1.665,0.806c0.63,0,1.181-0.343,1.665-0.806c0.473-0.475,0.879-1.096,1.222-1.769
			c0.68-1.373,1.099-2.942,1.099-4.039C92.57,34.408,90.773,32.628,88.586,32.628L88.586,32.628z M88.586,33.367
			c1.795,0,3.238,1.452,3.238,3.246c0,0.884-0.382,2.443-1.01,3.695c-0.314,0.632-0.694,1.201-1.088,1.583
			c-0.395,0.383-0.774,0.582-1.142,0.582c-0.38,0-0.76-0.199-1.154-0.582c-0.379-0.382-0.773-0.951-1.087-1.583
			c-0.629-1.252-1.008-2.812-1.008-3.695C85.336,34.819,86.777,33.367,88.586,33.367L88.586,33.367z M78.217,54.256v-2.651
			c0-0.408,0.329-0.726,0.734-0.726l0,0h3.186c0.051,0.014,0.104,0.014,0.156,0h12.583c0.053,0.014,0.106,0.014,0.158,0h3.173
			c0.419,0,0.733,0.318,0.733,0.726v2.651h0.735v-2.652c0-0.779-0.604-1.399-1.366-1.464v-3.483c0-1.321-0.641-2.034-1.178-2.522
			c0,0,0-0.012-0.015-0.024l-1.874-1.479c0.053-0.398-0.13-0.806-0.485-1.003l-0.891-0.514c-0.471-0.277-1.089-0.106-1.35,0.356
			c-0.275,0.475-0.105,1.082,0.366,1.36l0.877,0.5c0.356,0.211,0.776,0.171,1.089-0.065l1.782,1.425l0.028,0.013
			c0.485,0.449,0.917,0.884,0.917,1.953v3.47h-2.281c-0.236-3.258-3.173-5.832-6.712-5.832c-3.552,0-6.475,2.574-6.724,5.832h-2.267
			v-3.47c0-1.069,0.418-1.504,0.902-1.953h0.013c0-0.013,0.014-0.013,0.014-0.013l1.795-1.425c0.303,0.236,0.734,0.276,1.087,0.065
			l0.879-0.5c0.474-0.265,0.641-0.885,0.366-1.36c-0.209-0.343-0.6-0.53-0.982-0.488l0,0c-0.129,0.013-0.261,0.065-0.38,0.132
			l-0.879,0.514c-0.366,0.197-0.537,0.594-0.469,0.989l-1.889,1.493c-0.013,0.013-0.013,0.024-0.026,0.024
			c-0.54,0.49-1.18,1.202-1.18,2.522v3.483c-0.76,0.065-1.363,0.685-1.363,1.464v2.652H78.217z M83.763,41.722
			c0.091-0.015,0.183,0.024,0.235,0.117c0.079,0.12,0.039,0.276-0.092,0.344l-0.878,0.513c-0.117,0.067-0.262,0.027-0.327-0.091
			c-0.079-0.133-0.054-0.264,0.078-0.344l0.891-0.515C83.698,41.733,83.723,41.722,83.763,41.722L83.763,41.722z M93.305,41.733
			c0.065-0.012,0.133,0,0.185,0.028l0.891,0.501c0.132,0.079,0.158,0.211,0.092,0.344c-0.078,0.117-0.223,0.143-0.342,0.077
			l-0.877-0.5c-0.118-0.068-0.17-0.212-0.092-0.344C93.2,41.786,93.253,41.746,93.305,41.733L93.305,41.733z M88.586,45.034
			c3.172,0,5.741,2.269,5.978,5.092H82.608C82.845,47.303,85.414,45.034,88.586,45.034L88.586,45.034z"/>
	</g>
	<g>
		<g>
			<path fill="#5D675B" d="M43.349,71.487h-1.637v-15.77h-6.525v15.77h-1.638V54.378h9.8V71.487z"/>
			<path fill="#5D675B" d="M56.577,62.932c0,6.621-1.439,8.852-5.409,8.852c-4.02,0-5.409-2.231-5.409-8.852
				c0-6.62,1.39-8.852,5.409-8.852C55.138,54.081,56.577,56.312,56.577,62.932z M47.471,62.932c0,5.554,0.918,7.414,3.697,7.414
				c2.754,0,3.672-1.86,3.672-7.414s-0.918-7.414-3.672-7.414C48.389,55.519,47.471,57.378,47.471,62.932z"/>
			<path fill="#5D675B" d="M68.191,71.487h-1.637v-15.77h-2.878c-0.918,0-1.39,0.62-1.464,1.86
				c-0.422,6.323-0.546,8.554-1.489,10.835c-0.695,1.761-1.836,2.926-3.35,3.1l-0.149-1.265c0.819-0.347,1.464-0.917,1.96-2.306
				c0.819-2.207,0.993-3.942,1.415-10.637c0.124-1.934,1.042-2.926,2.68-2.926h4.912V71.487z"/>
			<path fill="#5D675B" d="M79.781,71.487V58.593c0-0.669,0.025-1.314,0.075-1.984h-0.075c-0.198,0.595-0.471,1.314-0.719,1.835
				l-5.905,13.042h-2.01V54.378h1.588v12.794c0,0.694-0.049,1.364-0.099,2.058h0.099c0.224-0.62,0.497-1.314,0.745-1.909
				l5.88-12.943h2.035v17.109H79.781z"/>
			<path fill="#F78E69" d="M89.138,55.816v15.671h-1.662V55.816h-4.441v-1.438h10.569v1.438H89.138z"/>
			<path fill="#5D675B" d="M103.903,71.487V58.593c0-0.669,0.024-1.314,0.074-1.984h-0.074c-0.199,0.595-0.472,1.314-0.72,1.835
				l-5.905,13.042h-2.01V54.378h1.588v12.794c0,0.694-0.05,1.364-0.099,2.058h0.099c0.224-0.62,0.496-1.314,0.744-1.909
				l5.881-12.943h2.034v17.109H103.903z"/>
			<path fill="#5D675B" d="M113.062,62.585c2.604,0.272,3.3,3.893,4.888,8.901h-1.737c-1.488-4.934-2.134-8.232-4.688-8.257h-1.588
				c0.074,0.669,0.124,1.314,0.124,1.934v6.323h-1.613V54.378h1.613v5.529c0,0.719-0.05,1.339-0.124,1.984h1.562
				c2.382,0,3.25-3.521,4.441-7.513h1.662c-1.266,4.141-2.108,7.86-4.54,8.158V62.585z"/>
			<path fill="#5D675B" d="M121.326,65.833l-1.439,5.653H118.2l4.466-16.638c0.074-0.298,0.322-0.471,0.62-0.471h1.762
				c0.298,0,0.521,0.173,0.596,0.471l4.49,16.638h-1.688l-1.438-5.653H121.326z M124.774,57.056
				c-0.124-0.471-0.248-0.942-0.347-1.388h-0.521c-0.1,0.446-0.224,0.917-0.348,1.388l-1.885,7.364h4.962L124.774,57.056z"/>
			<path fill="#5D675B" d="M38.232,93.65c1.58,0.171,2.093,1.407,2.093,3.498c0,2.7-0.914,3.423-3.349,3.423
				c-1.77,0-2.664-0.02-3.843-0.152V87.301c1.046-0.134,1.827-0.152,3.368-0.152c2.607,0,3.52,0.723,3.52,3.422
				c0,1.883-0.533,2.852-1.789,3.004V93.65z M36.462,88.213c-0.837,0-1.541,0-2.093,0.02v4.904h2.302
				c1.579-0.019,2.131-0.494,2.131-2.434C38.803,88.688,38.194,88.213,36.462,88.213z M39.069,96.978
				c0-2.243-0.609-2.833-2.378-2.871H34.37v5.381c0.628,0.019,1.465,0.019,2.417,0.019C38.499,99.506,39.069,99.031,39.069,96.978z"
				/>
			<path fill="#88D877" d="M48.547,85.954l-2.719,2.717V77.749l2.719,2.717V85.954z M48.787,90.216l-1.359-1.358l1.359-1.358h6.665
				l1.359,1.358l-1.359,1.358H48.787z M55.692,80.466l2.719-2.717v10.922l-2.719-2.717V80.466z M55.692,91.761l2.719-2.717v10.936
				l-2.719-2.718V91.761z"/>
			<path fill="#5D675B" d="M71.568,100.419V86.232c0-0.737,0.027-1.446,0.082-2.184h-0.082c-0.219,0.655-0.519,1.446-0.792,2.02
				l-6.497,14.351h-2.211V81.594h1.747v14.078c0,0.764-0.055,1.5-0.109,2.265h0.109c0.246-0.683,0.546-1.446,0.819-2.101
				l6.47-14.242h2.239v18.825H71.568z"/>
			<path fill="#5D675B" d="M87.21,81.785l-0.19,1.337c-1.311-0.191-2.157-0.246-3.904-0.246c-3.003,0-4.013,2.02-4.013,8.131
				s1.01,8.13,4.013,8.13c1.856,0,3.002-0.082,4.204-0.3l0.219,1.337c-1.283,0.409-2.43,0.572-4.422,0.572
				c-4.368,0-5.896-2.564-5.896-9.739c0-7.176,1.529-9.74,5.896-9.74C85.026,81.267,85.982,81.403,87.21,81.785z"/>
			<path fill="#5D675B" d="M101.188,100.419h-1.802V83.067h-3.167c-1.01,0-1.528,0.682-1.61,2.046
				c-0.464,6.957-0.601,9.412-1.638,11.923c-0.765,1.937-2.021,3.219-3.686,3.41l-0.163-1.392c0.9-0.382,1.61-1.01,2.156-2.537
				c0.9-2.428,1.092-4.338,1.556-11.704c0.137-2.128,1.146-3.22,2.948-3.22h5.405V100.419z"/>
			<path fill="#5D675B" d="M107.385,94.198l-1.584,6.221h-1.855l4.913-18.307c0.082-0.327,0.355-0.519,0.683-0.519h1.938
				c0.327,0,0.573,0.191,0.655,0.519l4.94,18.307h-1.856l-1.583-6.221H107.385z M111.179,84.54
				c-0.137-0.518-0.272-1.036-0.382-1.527h-0.573c-0.109,0.491-0.246,1.01-0.383,1.527l-2.074,8.104h5.46L111.179,84.54z"/>
			<path fill="#5D675B" d="M124.31,91.307l-3.931,9.112h-1.938l4.286-9.768l-4.013-9.058h1.91l3.631,8.321h0.573l3.604-8.321h1.965
				l-4.067,9.058l4.341,9.768h-1.966l-3.931-9.112H124.31z"/>
		</g>
	</g>
</g>
</svg>
