<?xml version="1.0" encoding="utf-8"?>
<!-- Generator: Adobe Illustrator 16.0.0, SVG Export Plug-In . SVG Version: 6.00 Build 0)  -->
<!DOCTYPE svg PUBLIC "-//W3C//DTD SVG 1.1//EN" "http://www.w3.org/Graphics/SVG/1.1/DTD/svg11.dtd">
<svg version="1.1" id="Layer_1" xmlns="http://www.w3.org/2000/svg" xmlns:xlink="http://www.w3.org/1999/xlink" x="0px" y="0px"
	 width="35px" height="35px" viewBox="0 0 35 35" enable-background="new 0 0 35 35" xml:space="preserve">
<g>
	<polygon fill="#DDCD37" points="10.867,19.497 14.033,19.497 14.033,23.273 10.867,23.273 	"/>
	<polygon fill="#DDCD37" points="15.759,15.762 18.925,15.762 18.925,23.273 15.759,23.273 	"/>
	<polygon fill="#DDCD37" points="20.968,11.727 24.134,11.727 24.134,23.273 20.968,23.273 	"/>
	<path fill="#FFFFFF" d="M29.247,30.472C26.141,33.287,22.021,35,17.5,35s-8.641-1.715-11.747-4.528l3.348-3.348
		c2.245,1.961,5.183,3.149,8.398,3.149c3.216,0,6.154-1.188,8.399-3.149L29.247,30.472L29.247,30.472z M30.472,5.753
		C33.286,8.859,35,12.979,35,17.5s-1.715,8.642-4.528,11.747l-3.348-3.349c1.962-2.245,3.15-5.183,3.15-8.398
		c0-3.216-1.188-6.153-3.15-8.399L30.472,5.753L30.472,5.753z M5.753,4.528C8.859,1.714,12.979,0,17.5,0
		c4.521,0,8.642,1.715,11.747,4.528l-3.348,3.348c-2.245-1.961-5.183-3.149-8.399-3.149s-6.153,1.188-8.398,3.149L5.753,4.528
		L5.753,4.528z M0,17.5c0-4.521,1.715-8.642,4.529-11.747l3.347,3.348c-1.961,2.246-3.149,5.183-3.149,8.399
		s1.188,6.153,3.149,8.398l-3.347,3.349C1.715,26.142,0,22.021,0,17.5L0,17.5z"/>
</g>
</svg>
