<?xml version="1.0" encoding="utf-8"?>
<!-- Generator: Adobe Illustrator 16.0.0, SVG Export Plug-In . SVG Version: 6.00 Build 0)  -->
<!DOCTYPE svg PUBLIC "-//W3C//DTD SVG 1.1//EN" "http://www.w3.org/Graphics/SVG/1.1/DTD/svg11.dtd">
<svg version="1.1" id="Layer_1" xmlns="http://www.w3.org/2000/svg" xmlns:xlink="http://www.w3.org/1999/xlink" x="0px" y="0px"
	 width="50px" height="50px" viewBox="0 0 50 50" enable-background="new 0 0 50 50" xml:space="preserve">
<circle opacity="0.8" fill="#88D877" cx="25" cy="24.818" r="25"/>
<path fill="#FFFFFF" d="M35.217,38.027c-1.369,1.652-3.354,2.489-5.902,2.489c-0.029,0-0.059,0-0.087,0
	c-3.376-0.026-6.964-1.739-10.662-5.095c-2.711-2.459-4.438-4.878-4.51-4.979c-0.199-0.28-0.176-0.661,0.056-0.915
	c1.476-1.62,3.122-1.557,4.242-1.218c1.057,0.32,1.828,0.945,1.97,1.066l1.041,0.802l0.064-9.33v-3.805
	c0-0.025,0.001-0.051,0.003-0.076c0.069-1.395,1.204-2.48,2.608-2.48c1.424,0,2.586,1.146,2.611,2.564l0.839,6.981
	c0.048,0.401-0.237,0.765-0.638,0.813c-0.4,0.048-0.765-0.237-0.812-0.638l-0.845-7.021c-0.003-0.029-0.005-0.058-0.005-0.087
	c0-0.634-0.516-1.15-1.15-1.15c-0.626,0-1.131,0.49-1.148,1.116c-0.001,0.008-0.001,0.017-0.001,0.024v3.763l-0.074,10.808
	c-0.002,0.277-0.161,0.53-0.411,0.651c-0.25,0.122-0.546,0.092-0.767-0.078l-2.223-1.713c-0.013-0.01-0.025-0.02-0.037-0.031
	c-0.004-0.003-0.636-0.546-1.487-0.793c-0.852-0.246-1.596-0.114-2.262,0.405c1.521,1.955,7.368,8.906,13.609,8.952
	c0.025,0,0.051,0,0.076,0c2.092,0,3.698-0.658,4.776-1.957c2.295-2.766,1.723-7.685,1.532-8.927
	c-2.181-1.426-4.859-2.321-6.755-2.826c-0.39-0.104-0.622-0.505-0.518-0.895c0.104-0.39,0.504-0.622,0.894-0.518
	c2.082,0.554,5.065,1.561,7.461,3.204c0.157,0.108,0.267,0.274,0.303,0.461C37.06,27.871,38.287,34.322,35.217,38.027z
	 M8.294,17.099c-0.144,0.146-0.217,0.326-0.217,0.508c0,0.181,0.074,0.397,0.217,0.506l3.438,3.292
	c0.289,0.29,0.76,0.254,1.013-0.036c0.289-0.29,0.254-0.76-0.035-1.013l-2.135-2.062h7.489c0.398,0,0.723-0.326,0.723-0.723
	c0-0.398-0.325-0.724-0.723-0.724h-7.489l2.135-1.99c0.289-0.289,0.289-0.724,0.035-1.013c-0.29-0.29-0.724-0.29-1.013-0.037
	L8.294,17.099z M40.094,18.127c0.144-0.145,0.217-0.326,0.217-0.507c0-0.181-0.073-0.398-0.217-0.506l-3.438-3.292
	c-0.289-0.29-0.76-0.254-1.013,0.036c-0.289,0.29-0.253,0.76,0.035,1.013l2.135,2.062h-7.489c-0.398,0-0.723,0.326-0.723,0.723
	c0,0.398,0.325,0.724,0.723,0.724h7.489l-2.135,1.99c-0.289,0.29-0.289,0.724-0.035,1.013c0.29,0.29,0.724,0.29,1.013,0.037
	L40.094,18.127z"/>
</svg>
