<?xml version="1.0" encoding="utf-8"?>
<!-- Generator: Adobe Illustrator 16.0.0, SVG Export Plug-In . SVG Version: 6.00 Build 0)  -->
<!DOCTYPE svg PUBLIC "-//W3C//DTD SVG 1.1//EN" "http://www.w3.org/Graphics/SVG/1.1/DTD/svg11.dtd">
<svg version="1.1" id="Layer_1" xmlns="http://www.w3.org/2000/svg" xmlns:xlink="http://www.w3.org/1999/xlink" x="0px" y="0px"
	 width="100px" height="80px" viewBox="33.5 31.5 100 80" enable-background="new 33.5 31.5 100 80" xml:space="preserve">
<g>
	<g>
		<path fill="#F78E69" stroke="#F78E69" stroke-width="0.5076" stroke-miterlimit="10" d="M75.858,33.629
			c-2.206,0-4.004,1.784-4.004,3.991c0,1.098,0.42,2.67,1.103,4.044c0.342,0.674,0.748,1.296,1.233,1.772
			c0.472,0.462,1.038,0.807,1.667,0.807c0.631,0,1.182-0.345,1.667-0.807c0.473-0.476,0.88-1.098,1.222-1.772
			c0.682-1.375,1.101-2.946,1.101-4.044C79.848,35.413,78.049,33.629,75.858,33.629L75.858,33.629z M75.858,34.369
			c1.799,0,3.242,1.454,3.242,3.25c0,0.886-0.382,2.446-1.011,3.702c-0.315,0.634-0.696,1.202-1.09,1.586
			c-0.395,0.383-0.775,0.581-1.143,0.581c-0.381,0-0.761-0.198-1.155-0.581c-0.38-0.384-0.775-0.953-1.09-1.586
			c-0.629-1.255-1.01-2.815-1.01-3.702C72.602,35.823,74.047,34.369,75.858,34.369L75.858,34.369z M65.475,55.291v-2.656
			c0-0.409,0.329-0.727,0.735-0.727l0,0h3.189c0.053,0.014,0.105,0.014,0.158,0H82.16c0.052,0.014,0.105,0.014,0.158,0h3.176
			c0.421,0,0.736,0.318,0.736,0.727v2.656h0.733v-2.657c0-0.779-0.604-1.4-1.366-1.467v-3.489c0-1.321-0.643-2.036-1.182-2.524
			c0,0,0-0.013-0.012-0.026l-1.877-1.48c0.051-0.397-0.132-0.806-0.488-1.005l-0.891-0.515c-0.472-0.277-1.09-0.106-1.352,0.357
			c-0.276,0.476-0.105,1.084,0.367,1.361l0.878,0.503c0.356,0.211,0.776,0.171,1.091-0.066l1.785,1.428l0.026,0.013
			c0.486,0.45,0.918,0.886,0.918,1.957v3.476h-2.284c-0.236-3.265-3.176-5.842-6.721-5.842c-3.558,0-6.485,2.577-6.734,5.842h-2.271
			v-3.476c0-1.07,0.42-1.507,0.905-1.957h0.012c0-0.013,0.014-0.013,0.014-0.013l1.797-1.428c0.304,0.237,0.737,0.278,1.09,0.066
			l0.879-0.503c0.474-0.263,0.643-0.885,0.368-1.361c-0.209-0.343-0.601-0.529-0.983-0.489l0,0
			c-0.131,0.013-0.263,0.066-0.381,0.132l-0.879,0.515c-0.367,0.199-0.539,0.595-0.472,0.992l-1.891,1.494
			c-0.013,0.013-0.013,0.026-0.026,0.026c-0.54,0.489-1.181,1.203-1.181,2.524v3.489c-0.762,0.066-1.365,0.688-1.365,1.467v2.657
			L65.475,55.291L65.475,55.291z M71.028,42.736c0.091-0.015,0.183,0.026,0.235,0.118c0.079,0.119,0.041,0.277-0.092,0.344
			l-0.878,0.515c-0.118,0.066-0.263,0.027-0.328-0.092c-0.078-0.133-0.052-0.265,0.079-0.345l0.892-0.514
			C70.962,42.749,70.988,42.736,71.028,42.736L71.028,42.736z M80.584,42.749c0.065-0.013,0.132,0,0.185,0.026l0.893,0.503
			c0.131,0.079,0.158,0.211,0.091,0.344c-0.079,0.118-0.223,0.144-0.342,0.078l-0.878-0.502c-0.118-0.067-0.17-0.212-0.091-0.344
			C80.479,42.801,80.532,42.762,80.584,42.749L80.584,42.749z M75.858,46.052c3.176,0,5.75,2.274,5.986,5.102H69.871
			C70.108,48.326,72.681,46.052,75.858,46.052L75.858,46.052z"/>
	</g>
	<g>
		<path fill="#5D675B" d="M44.531,76.928h-2.176v-4.441c-0.031-1.196-0.98-2.146-2.176-2.176l-0.031-2.206
			c1.227,0,2.207-0.98,2.207-2.206c0-0.275-0.062-0.521-0.153-0.766L38.277,54.87h2.36l3.556,9.312
			c0.184,0.521,0.337,1.103,0.337,1.716c0,1.318-0.583,2.482-1.502,3.308c0.95,0.828,1.502,1.992,1.502,3.31L44.531,76.928
			L44.531,76.928z"/>
		<path fill="#5D675B" d="M47.504,59.25c0.031-2.419,1.993-4.38,4.415-4.38c1.317,0,2.482,0.583,3.311,1.501
			c0.796-0.918,1.992-1.501,3.311-1.501c2.421,0,4.383,1.961,4.383,4.38v17.615h-2.176V59.189c-0.031-1.195-1.012-2.144-2.208-2.144
			c-1.227,0-2.207,0.979-2.238,2.175l-2.176,0.03v-0.061c-0.031-1.195-1.012-2.144-2.207-2.144c-1.227,0-2.208,0.979-2.208,2.175
			v17.646h-2.207V59.25z"/>
		<path fill="#F78E69" d="M74.326,54.84v2.206h-4.415c-1.226,0-2.207,1.01-2.207,2.205c0,0.276,0.062,0.552,0.153,0.797l6.469,16.88
			h-2.361l-6.1-15.961c-0.215-0.521-0.337-1.103-0.337-1.716c0-2.359,1.962-4.411,4.383-4.411H74.326z"/>
		<path fill="#F78E69" d="M79.475,76.928h-2.176V59.312c0-2.42,1.961-4.38,4.384-4.38c2.453,0,4.415,1.96,4.415,4.38v17.616h-2.207
			V59.281c0-1.226-0.98-2.174-2.208-2.174c-1.196,0-2.208,0.979-2.208,2.174V76.928z"/>
		<path fill="#5D675B" d="M93.788,61.52c3.544,0.414,4.108,2.79,4.108,4.379c0,1.589,0,6.619,0,6.619
			c0,2.418-2.022,4.412-4.414,4.412c-2.452,0-4.414-1.992-4.414-4.412v-6.619c0-2.052,1.41-3.83,3.342-4.289v-6.74h2.207v8.792
			h-1.196c-1.194,0-2.146,1.012-2.176,2.175v6.709c0.03,1.194,1.011,2.174,2.237,2.174c1.195,0,2.176-0.948,2.207-2.144
			c0,0,0-5.645,0-6.678c0-1.033-0.637-2.24-1.901-2.236V61.52z"/>
		<path fill="#5D675B" d="M103.047,76.928h-2.177V59.312c0-2.42,1.962-4.38,4.384-4.38c2.452,0,4.414,1.96,4.414,4.38v17.616h-2.207
			V59.281c0-1.226-0.982-2.174-2.207-2.174c-1.195,0-2.207,0.979-2.207,2.174V76.928z"/>
		<path fill="#5D675B" d="M117.055,76.928h-2.177V65.837c-0.03-1.194-0.981-2.144-2.177-2.175h-0.062v-2.175h0.062
			c1.195-0.031,2.146-0.979,2.177-2.175V54.84h2.177v4.411c0,1.318-0.582,2.543-1.503,3.309c0.921,0.828,1.503,2.022,1.503,3.339
			V76.928z"/>
		<path fill="#5D675B" d="M119.414,74.752h4.414c1.227-0.031,2.207-1.012,2.207-2.206c0-0.274-0.062-0.552-0.153-0.796
			l-6.468-16.849h2.359l6.102,15.93c0.184,0.521,0.337,1.103,0.337,1.715c0,2.39-1.961,4.381-4.384,4.381h-4.414V74.752z"/>
		<path fill="#5D675B" d="M38.333,89.135h1.999v12.723c0.592-0.338,1.296-0.562,2.057-0.562c2.225,0,4.028,1.828,4.028,4.054v4.053
			h-2v-4.082c-0.028-1.125-0.929-1.998-2.028-1.998c-1.126,0-2.028,0.902-2.057,1.998v4.082h-1.999V89.135z"/>
		<path fill="#5D675B" d="M50.106,109.4h-2V93.217c0-2.225,1.802-4.025,4.028-4.025c2.252,0,4.055,1.802,4.055,4.025V109.4h-2.027
			V93.188c0-1.125-0.901-1.996-2.027-1.996c-1.099,0-2.028,0.9-2.028,1.996L50.106,109.4L50.106,109.4z"/>
		<path fill="#5D675B" d="M58.218,89.135h2v16.24c0.029,1.098,0.93,1.998,2.028,1.998c1.127,0,2.028-0.871,2.057-1.969v-6.193
			c-0.029-1.098-0.901-1.969-2-1.969h-0.057v-2.027h0.057c1.099-0.029,1.971-0.9,2-1.998v-4.082h2v4.053
			c0,1.211-0.507,2.281-1.38,3.041c0.873,0.761,1.38,1.802,1.38,3.039v6.08c0,2.279-1.832,4.053-4.057,4.053
			c-2.252,0-4.028-1.772-4.028-4.053V89.135z"/>
		<path fill="#5D675B" d="M70.182,101.322h2.204c2.225,0,4.028,1.801,4.028,4.053c0,2.225-1.803,4.053-4.028,4.053
			c-2.253,0-4.056-1.828-4.056-4.053V89.162h1.999v16.213c0,1.127,0.93,2.027,2.057,2.027c1.127,0,2.028-0.9,2.028-2.027
			c0-1.125-0.901-2.027-2-2.055h-2.231L70.182,101.322L70.182,101.322z"/>
		<path fill="#88D877" d="M84.884,107.791c2.355,0,4.265-1.877,4.265-4.232c0-2.354-1.908-4.26-4.265-4.26v-2.146
			c1.462,0,2.653-1.19,2.653-2.651s-1.191-2.651-2.653-2.651s-2.654,1.19-2.654,2.651l-2.147-0.147c0-2.295,1.7-4.65,4.801-4.65
			s4.802,2.355,4.802,4.65c0,1.489-0.717,2.979-2.178,3.782c2.506,0.925,3.758,3.22,3.758,5.546c0,3.1-2.267,6.256-6.382,6.256
			c-4.115,0-6.381-3.156-6.381-6.256l2.116-0.121C80.619,105.914,82.528,107.791,84.884,107.791z"/>
		<path fill="#5D675B" d="M97.828,109.373h-1.999v-16.24c-0.028-1.07-0.901-2-2-2H91.83v-2.025h1.943
			c2.226,0,4.055,1.802,4.055,4.054V109.373z"/>
		<path fill="#5D675B" d="M106.223,102.34c1.5,0.912,1.408,3.008,1.408,3.008c0,2.252-1.803,4.053-4.056,4.053
			c-2.226,0-4.056-1.801-4.056-4.053c0-2.141,1.803-4.053,3.998-4.053c1.185,0,2.084-0.9,2.084-2.027
			c0-1.125-0.899-2.024-2.026-2.024c-2.196,0-4.056-1.773-4.056-3.998v-4.109h2v4.054c0.026,1.153,0.929,2.026,2.056,2.026
			c2.225,0,4.056,1.828,4.056,4.054c0,2.223-1.803,4.053-4.056,4.053c-1.127,0-2.028,0.93-2.028,2.027
			c0,1.125,0.901,2.055,2.028,2.055s2.057-0.865,2.057-2.055c0-0.863-0.792-2.027-2.057-2.027L106.223,102.34z"/>
		<path fill="#5D675B" d="M116.215,103.32h-2.134c-1.099,0.027-1.998,0.93-1.998,2.027c0,1.125,0.899,2.055,2.026,2.055
			s2.057-0.93,2.057-2.055V93.133c-0.029-1.1-0.93-1.973-2.057-1.973s-2.026,0.902-2.026,2l-2.028,0.027c0-1.125-0.9-2.027-2-2.027
			h-1.998v-2.025h1.969c1.213,0,2.312,0.535,3.043,1.379c0.732-0.844,1.832-1.379,3.043-1.379c2.253,0,4.056,1.803,4.056,4.053
			v12.16c0,2.252-1.803,4.053-4.056,4.053c-2.227,0-4.057-1.801-4.057-4.053c0-2.225,1.803-4.024,4.057-4.024h2.104V103.32z"/>
		<path fill="#5D675B" d="M122.193,109.4h-1.998V93.217c0-2.225,1.803-4.025,4.027-4.025c2.252,0,4.055,1.802,4.055,4.025V109.4
			h-2.026V93.188c0-1.125-0.901-1.996-2.028-1.996c-1.099,0-2.029,0.9-2.029,1.996V109.4L122.193,109.4z"/>
	</g>
</g>
</svg>
