<?xml version="1.0" encoding="utf-8"?>
<!-- Generator: Adobe Illustrator 16.0.0, SVG Export Plug-In . SVG Version: 6.00 Build 0)  -->
<!DOCTYPE svg PUBLIC "-//W3C//DTD SVG 1.1//EN" "http://www.w3.org/Graphics/SVG/1.1/DTD/svg11.dtd">
<svg version="1.1" id="Layer_1" xmlns="http://www.w3.org/2000/svg" xmlns:xlink="http://www.w3.org/1999/xlink" x="0px" y="0px"
	 width="100px" height="80px" viewBox="33.5 31.5 100 80" enable-background="new 33.5 31.5 100 80" xml:space="preserve">
<g>
	<g>
		<path fill="#F78E69" stroke="#F78E69" stroke-width="0.5068" stroke-miterlimit="10" d="M90.415,36.628
			c-2.202,0-3.998,1.779-3.998,3.984c0,1.097,0.42,2.666,1.102,4.039c0.342,0.673,0.746,1.294,1.23,1.769
			c0.473,0.463,1.038,0.806,1.665,0.806c0.63,0,1.181-0.343,1.665-0.806c0.473-0.475,0.879-1.096,1.223-1.769
			c0.68-1.373,1.098-2.942,1.098-4.039C94.399,38.408,92.603,36.628,90.415,36.628L90.415,36.628z M90.415,37.367
			c1.795,0,3.238,1.452,3.238,3.246c0,0.884-0.383,2.443-1.01,3.695c-0.314,0.632-0.694,1.201-1.088,1.583
			c-0.396,0.383-0.774,0.582-1.143,0.582c-0.38,0-0.76-0.199-1.154-0.582c-0.379-0.382-0.772-0.951-1.087-1.583
			c-0.629-1.252-1.008-2.812-1.008-3.695C87.165,38.819,88.606,37.367,90.415,37.367L90.415,37.367z M80.046,58.256v-2.651
			c0-0.408,0.329-0.726,0.734-0.726l0,0h3.187c0.051,0.014,0.104,0.014,0.155,0h12.583c0.054,0.014,0.106,0.014,0.158,0h3.173
			c0.419,0,0.732,0.318,0.732,0.726v2.651h0.735v-2.652c0-0.779-0.604-1.399-1.366-1.464v-3.483c0-1.321-0.641-2.034-1.178-2.522
			c0,0,0-0.012-0.015-0.024l-1.874-1.479c0.053-0.398-0.131-0.806-0.485-1.003l-0.891-0.514c-0.472-0.277-1.089-0.106-1.351,0.356
			c-0.274,0.475-0.104,1.082,0.366,1.36l0.877,0.5c0.356,0.211,0.776,0.171,1.089-0.065l1.782,1.425l0.028,0.013
			c0.484,0.449,0.917,0.884,0.917,1.953v3.47h-2.281c-0.235-3.258-3.173-5.832-6.712-5.832c-3.553,0-6.476,2.574-6.724,5.832H81.42
			v-3.47c0-1.069,0.418-1.504,0.902-1.953h0.013c0-0.013,0.014-0.013,0.014-0.013l1.795-1.425c0.303,0.236,0.733,0.276,1.087,0.065
			l0.879-0.5c0.474-0.265,0.641-0.885,0.365-1.36c-0.209-0.343-0.6-0.53-0.981-0.488l0,0c-0.129,0.013-0.261,0.065-0.38,0.132
			l-0.879,0.514c-0.366,0.197-0.537,0.594-0.47,0.989l-1.889,1.493c-0.013,0.013-0.013,0.024-0.026,0.024
			c-0.54,0.49-1.18,1.202-1.18,2.522v3.483c-0.76,0.065-1.363,0.685-1.363,1.464v2.652H80.046z M85.593,45.722
			c0.09-0.015,0.182,0.024,0.234,0.117c0.079,0.12,0.039,0.276-0.092,0.344l-0.879,0.513c-0.116,0.067-0.261,0.027-0.326-0.091
			c-0.079-0.133-0.054-0.264,0.077-0.344l0.892-0.515C85.527,45.733,85.552,45.722,85.593,45.722L85.593,45.722z M95.134,45.733
			c0.065-0.012,0.133,0,0.186,0.028l0.891,0.501c0.133,0.079,0.158,0.211,0.092,0.344c-0.078,0.117-0.223,0.143-0.342,0.077
			l-0.877-0.5c-0.118-0.068-0.17-0.212-0.092-0.344C95.029,45.786,95.082,45.746,95.134,45.733L95.134,45.733z M90.415,49.034
			c3.172,0,5.741,2.269,5.979,5.092H84.438C84.674,51.303,87.243,49.034,90.415,49.034L90.415,49.034z"/>
	</g>
	<g>
		<g>
			<path fill="#5D675B" d="M45.178,75.486h-1.637v-15.77h-6.525v15.77h-1.638V58.378h9.8V75.486z"/>
			<path fill="#5D675B" d="M58.406,66.932c0,6.621-1.439,8.852-5.409,8.852c-4.02,0-5.409-2.231-5.409-8.852
				c0-6.62,1.39-8.852,5.409-8.852C56.967,58.081,58.406,60.312,58.406,66.932z M49.3,66.932c0,5.554,0.918,7.414,3.697,7.414
				c2.754,0,3.672-1.859,3.672-7.414s-0.918-7.414-3.672-7.414C50.218,59.519,49.3,61.378,49.3,66.932z"/>
			<path fill="#5D675B" d="M70.02,75.486h-1.637v-15.77h-2.878c-0.918,0-1.39,0.62-1.464,1.86
				c-0.422,6.323-0.546,8.554-1.489,10.835c-0.695,1.761-1.836,2.926-3.35,3.1l-0.149-1.265c0.819-0.347,1.464-0.917,1.96-2.306
				c0.819-2.208,0.993-3.942,1.415-10.637c0.124-1.934,1.042-2.926,2.68-2.926h4.912V75.486L70.02,75.486z"/>
			<path fill="#5D675B" d="M81.61,75.486V62.593c0-0.669,0.025-1.314,0.075-1.984H81.61c-0.198,0.595-0.471,1.314-0.719,1.835
				l-5.905,13.042h-2.01V58.378h1.588v12.794c0,0.694-0.049,1.364-0.099,2.059h0.099c0.224-0.621,0.497-1.314,0.745-1.91
				l5.88-12.942h2.036v17.108H81.61z"/>
			<path fill="#F78E69" d="M90.968,59.816v15.67h-1.662v-15.67h-4.441v-1.438h10.568v1.438H90.968z"/>
			<path fill="#5D675B" d="M105.731,75.486V62.593c0-0.669,0.024-1.314,0.074-1.984h-0.074c-0.198,0.595-0.471,1.314-0.719,1.835
				l-5.906,13.042h-2.01V58.378h1.588v12.794c0,0.694-0.049,1.364-0.099,2.059h0.099c0.225-0.621,0.496-1.314,0.744-1.91
				l5.881-12.942h2.035v17.108H105.731z"/>
			<path fill="#5D675B" d="M114.892,66.585c2.604,0.272,3.299,3.893,4.888,8.901h-1.737c-1.488-4.935-2.134-8.232-4.688-8.257
				h-1.588c0.073,0.669,0.123,1.314,0.123,1.934v6.323h-1.612V58.378h1.612v5.529c0,0.719-0.05,1.339-0.123,1.984h1.562
				c2.382,0,3.25-3.521,4.44-7.513h1.662c-1.266,4.141-2.107,7.86-4.539,8.158V66.585z"/>
			<path fill="#5D675B" d="M123.155,69.833l-1.439,5.653h-1.687l4.466-16.638c0.074-0.298,0.322-0.471,0.62-0.471h1.762
				c0.298,0,0.521,0.173,0.597,0.471l4.489,16.638h-1.688l-1.438-5.653H123.155z M126.603,61.056
				c-0.123-0.471-0.248-0.942-0.347-1.388h-0.521c-0.1,0.446-0.225,0.917-0.348,1.388l-1.886,7.364h4.962L126.603,61.056z"/>
			<path fill="#5D675B" d="M40.061,97.65c1.58,0.17,2.093,1.406,2.093,3.498c0,2.699-0.914,3.422-3.349,3.422
				c-1.77,0-2.664-0.02-3.843-0.151V91.301c1.046-0.134,1.827-0.152,3.368-0.152c2.607,0,3.52,0.724,3.52,3.422
				c0,1.884-0.533,2.853-1.789,3.005V97.65z M38.291,92.213c-0.837,0-1.541,0-2.093,0.02v4.904H38.5
				c1.579-0.019,2.131-0.494,2.131-2.434C40.632,92.688,40.023,92.213,38.291,92.213z M40.898,100.979
				c0-2.244-0.609-2.834-2.378-2.871h-2.321v5.381c0.628,0.019,1.465,0.019,2.417,0.019
				C40.328,103.506,40.898,103.031,40.898,100.979z"/>
			<path fill="#88D877" d="M50.376,89.954l-2.719,2.717V81.749l2.719,2.717V89.954z M50.616,94.216l-1.359-1.358l1.359-1.357h6.665
				l1.359,1.357l-1.359,1.358H50.616z M57.521,84.466l2.719-2.717v10.922l-2.719-2.717V84.466z M57.521,95.761l2.719-2.717v10.937
				l-2.719-2.719V95.761z"/>
			<path fill="#5D675B" d="M73.397,104.419V90.232c0-0.737,0.027-1.446,0.082-2.185h-0.082c-0.219,0.655-0.519,1.446-0.792,2.021
				l-6.497,14.351h-2.211V85.594h1.747v14.078c0,0.764-0.055,1.5-0.109,2.266h0.109c0.246-0.684,0.546-1.446,0.819-2.102
				l6.47-14.242h2.239v18.825H73.397z"/>
			<path fill="#5D675B" d="M89.039,85.785l-0.19,1.337c-1.311-0.19-2.156-0.246-3.903-0.246c-3.003,0-4.013,2.021-4.013,8.131
				c0,6.111,1.01,8.13,4.013,8.13c1.856,0,3.002-0.082,4.204-0.3l0.219,1.337c-1.283,0.409-2.43,0.572-4.422,0.572
				c-4.368,0-5.896-2.564-5.896-9.739c0-7.176,1.529-9.739,5.896-9.739C86.854,85.268,87.812,85.402,89.039,85.785z"/>
			<path fill="#5D675B" d="M103.017,104.419h-1.802V87.066h-3.167c-1.01,0-1.527,0.683-1.609,2.047
				c-0.465,6.957-0.602,9.412-1.639,11.923c-0.765,1.937-2.021,3.219-3.686,3.409l-0.163-1.391c0.899-0.383,1.61-1.011,2.155-2.537
				c0.9-2.429,1.093-4.338,1.557-11.705c0.137-2.127,1.146-3.22,2.948-3.22h5.405V104.419L103.017,104.419z"/>
			<path fill="#5D675B" d="M109.214,98.198l-1.584,6.221h-1.855l4.914-18.308c0.082-0.326,0.354-0.519,0.683-0.519h1.938
				c0.326,0,0.572,0.191,0.654,0.519l4.94,18.308h-1.856l-1.583-6.221H109.214z M113.009,88.54
				c-0.138-0.519-0.272-1.036-0.383-1.526h-0.572c-0.109,0.49-0.246,1.01-0.384,1.526l-2.073,8.104h5.459L113.009,88.54z"/>
			<path fill="#5D675B" d="M126.14,95.307l-3.932,9.112h-1.938l4.285-9.769l-4.013-9.058h1.91l3.631,8.321h0.573l3.604-8.321h1.965
				l-4.066,9.058l4.341,9.769h-1.966l-3.932-9.112H126.14z"/>
		</g>
	</g>
</g>
</svg>
