<?xml version="1.0" encoding="UTF-8" standalone="no"?>
<!-- Created with Inkscape (http://www.inkscape.org/) -->

<svg
   xmlns:dc="http://purl.org/dc/elements/1.1/"
   xmlns:cc="http://creativecommons.org/ns#"
   xmlns:rdf="http://www.w3.org/1999/02/22-rdf-syntax-ns#"
   xmlns:svg="http://www.w3.org/2000/svg"
   xmlns="http://www.w3.org/2000/svg"
   version="1.1"
   width="32"
   height="32"
   id="svg3005">
  <defs
     id="defs3007" />
  <metadata
     id="metadata3010">
    <rdf:RDF>
      <cc:Work
         rdf:about="">
        <dc:format>image/svg+xml</dc:format>
        <dc:type
           rdf:resource="http://purl.org/dc/dcmitype/StillImage" />
        <dc:title></dc:title>
      </cc:Work>
    </rdf:RDF>
  </metadata>
  <g
     transform="translate(0,-16)"
     id="layer1">
    <g
       transform="translate(-12.3545,3.3089287)"
       id="g5">
      <path
         d="m 24.034,38.588 c 9.388,-0.233 14.515,-8.044 14.515,-14.832 0,-0.226 -0.005,-0.45 -0.015,-0.675 1.026,-0.735 1.917,-1.653 2.622,-2.699 -0.942,0.415 -1.955,0.694 -3.018,0.821 1.085,-0.646 1.918,-1.668 2.311,-2.885 -1.016,0.598 -2.14,1.031 -3.336,1.265 -0.959,-1.014 -2.324,-1.646 -3.836,-1.646 -2.901,0 -5.254,2.335 -5.254,5.215 0,0.409 0.047,0.807 0.136,1.188 -4.367,-0.218 -8.238,-2.294 -10.829,-5.448 -0.452,0.77 -0.711,1.666 -0.711,2.621 0,1.81 0.927,3.405 2.337,4.341 -0.861,-0.027 -1.671,-0.262 -2.38,-0.652 0,0.021 0,0.044 0,0.065 0,2.526 1.811,4.635 4.215,5.113 -0.441,0.12 -0.905,0.184 -1.384,0.184 -0.339,0 -0.668,-0.033 -0.989,-0.094 0.669,2.072 2.609,3.579 4.908,3.621 -1.799,1.398 -4.064,2.233 -6.525,2.233 -0.422,0 -0.839,-0.025 -1.248,-0.073 v 0.003 c 2.244,1.427 4.893,2.277 7.741,2.334 h 0.74"
         id="path7"
         style="fill:#ffffff" />
    </g>
  </g>
</svg>
