<?xml version="1.0" encoding="utf-8"?>
<!-- Generator: Adobe Illustrator 16.0.0, SVG Export Plug-In . SVG Version: 6.00 Build 0)  -->
<!DOCTYPE svg PUBLIC "-//W3C//DTD SVG 1.1//EN" "http://www.w3.org/Graphics/SVG/1.1/DTD/svg11.dtd">
<svg version="1.1" id="Layer_1" xmlns="http://www.w3.org/2000/svg" xmlns:xlink="http://www.w3.org/1999/xlink" x="0px" y="0px"
	 width="20px" height="20px" viewBox="0 0 20 20" enable-background="new 0 0 20 20" xml:space="preserve">
<g>
	<g>
		<g>
			<g transform="translate(0.000000, -1.000000)">
				<path fill="#FFFFFF" d="M11.266,17.838c-0.022-0.052-0.053-0.1-0.094-0.139l-2.585-2.57
					c-0.168-0.167-0.44-0.167-0.609,0c-0.168,0.167-0.168,0.438,0,0.605l1.851,1.84H7.465c-2.084,0-3.781-1.688-3.781-3.759V7.09
					H2.823v6.726c0,2.544,2.083,4.614,4.643,4.614h2.362l-1.851,1.839c-0.168,0.167-0.168,0.439,0,0.606
					C8.062,20.958,8.171,21,8.282,21c0.109,0,0.221-0.042,0.304-0.125l2.585-2.57c0.042-0.04,0.072-0.086,0.094-0.139
					C11.309,18.061,11.309,17.943,11.266,17.838"/>
				<path fill="#FFFFFF" d="M17.476,15.039V8.312c0-2.545-2.083-4.614-4.643-4.614h-2.361l1.851-1.838
					c0.169-0.167,0.169-0.438,0-0.605c-0.169-0.168-0.44-0.168-0.609,0L9.127,3.822c-0.041,0.04-0.072,0.087-0.094,0.14
					c-0.044,0.104-0.044,0.223,0,0.327c0.022,0.053,0.053,0.101,0.094,0.14l2.586,2.569c0.083,0.084,0.195,0.125,0.304,0.125
					c0.112,0,0.221-0.041,0.306-0.125c0.169-0.167,0.169-0.438,0-0.605l-1.851-1.838h2.361c2.084,0,3.782,1.686,3.782,3.757v6.727
					H17.476"/>
			</g>
		</g>
		<path fill="#FFFFFF" d="M3.125,0.87c1.239,0,2.25,1.003,2.25,2.235c0,1.233-1.01,2.236-2.25,2.236c-1.24,0-2.25-1.003-2.25-2.236
			C0.875,1.873,1.885,0.87,3.125,0.87 M3.125,0C1.398,0,0,1.39,0,3.105S1.398,6.21,3.125,6.21c1.726,0,3.124-1.39,3.124-3.105
			S4.851,0,3.125,0L3.125,0z"/>
		<path fill="#FFFFFF" d="M16.875,14.532c1.24,0,2.25,1.002,2.25,2.235s-1.01,2.235-2.25,2.235c-1.239,0-2.25-1.002-2.25-2.235
			S15.635,14.532,16.875,14.532 M16.875,13.663c-1.726,0-3.124,1.39-3.124,3.105s1.398,3.105,3.124,3.105
			c1.727,0,3.125-1.39,3.125-3.105S18.602,13.663,16.875,13.663L16.875,13.663z"/>
	</g>
</g>
</svg>
