<?xml version="1.0" encoding="utf-8"?>
<!-- Generator: Adobe Illustrator 16.0.0, SVG Export Plug-In . SVG Version: 6.00 Build 0)  -->
<!DOCTYPE svg PUBLIC "-//W3C//DTD SVG 1.1//EN" "http://www.w3.org/Graphics/SVG/1.1/DTD/svg11.dtd">
<svg version="1.1" id="Layer_1" xmlns="http://www.w3.org/2000/svg" xmlns:xlink="http://www.w3.org/1999/xlink" x="0px" y="0px"
	 width="24px" height="21px" viewBox="0 0 24 21" enable-background="new 0 0 24 21" xml:space="preserve">
<g>
	<path fill="#FFFFFF" d="M23.69,11.223C23.896,11.019,24,10.765,24,10.51c0-0.253-0.104-0.56-0.31-0.712l-4.917-4.625
		c-0.413-0.406-1.087-0.354-1.45,0.051c-0.413,0.407-0.359,1.068,0.054,1.423l3.052,2.898l0.948,0.956l-0.948,1.077l-3.052,2.797
		c-0.413,0.406-0.413,1.015-0.054,1.422c0.416,0.406,1.037,0.406,1.45,0.05L23.69,11.223z"/>
	<path fill="#FFFFFF" d="M0.31,9.777C0.104,9.98,0,10.234,0,10.49c0,0.253,0.104,0.559,0.31,0.711l4.917,4.625
		c0.413,0.407,1.087,0.355,1.45-0.05c0.413-0.408,0.359-1.068-0.054-1.424l-3.052-2.898L2.623,10.5l0.948-1.078l3.052-2.796
		C7.036,6.22,7.036,5.611,6.677,5.203C6.261,4.797,5.64,4.797,5.227,5.152L0.31,9.777z"/>
	<path fill="#FFFFFF" d="M9.325,21c-0.111,0-0.225-0.015-0.338-0.045c-0.688-0.188-1.097-0.905-0.91-1.602l4.914-18.388
		c0.186-0.696,0.892-1.106,1.584-0.92c0.688,0.188,1.097,0.905,0.91,1.602l-4.914,18.388C10.416,20.617,9.895,21,9.325,21z"/>
</g>
</svg>
