<?xml version="1.0" encoding="utf-8"?>
<!-- Generator: Adobe Illustrator 16.0.0, SVG Export Plug-In . SVG Version: 6.00 Build 0)  -->
<!DOCTYPE svg PUBLIC "-//W3C//DTD SVG 1.1//EN" "http://www.w3.org/Graphics/SVG/1.1/DTD/svg11.dtd">
<svg version="1.1" id="Layer_1" xmlns="http://www.w3.org/2000/svg" xmlns:xlink="http://www.w3.org/1999/xlink" x="0px" y="0px"
	 width="227px" height="60px" viewBox="0 0 227 60" enable-background="new 0 0 227 60" xml:space="preserve">
<g>
	<g>
		<path fill="none" d="M47.46,5.708c-1.867,2.47-3.746,4.934-5.583,7.403C43.714,10.641,45.594,8.177,47.46,5.708z"/>
		<path fill="none" d="M46.556,23.998c-0.337-0.936-1.49-3.127-1.611-3.316c-0.717-1.165-1.554-2.189-2.484-3.126
			c-0.74-0.747-1.563-1.381-2.403-1.972c-1.251-0.88-2.584-1.622-4.012-2.145c-1.924-0.718-3.943-1.085-6.004-1.096l0.03-6.172
			l-0.03,6.171c-1.834-0.013-3.672,0.19-5.471,0.773c-0.672,0.212-1.317,0.551-1.971,0.849c-0.459,0.214-2.761,1.556-3.406,2.058
			c-0.411,0.317-0.83,0.617-1.203,0.965c-0.153,0.143-0.28,0.304-0.425,0.451c-0.811,0.803-1.53,1.664-2.163,2.593
			c-1.279,1.884-2.177,3.97-2.659,6.173c-0.44,2-0.569,4.062-0.292,6.13c0.173,1.306,0.535,2.596,1.013,3.864
			c0.18,0.48,0.396,0.949,0.621,1.41c0.132,0.275,0.222,0.555,0.37,0.825c0.053,0.097,0.072,0.202,0.128,0.298
			c1.268,2.229,2.965,4.061,4.903,5.483c2.136,1.577,4.587,2.585,7.162,3.081c2.454,0.473,4.988,0.418,7.477-0.188
			c1.558-0.38,3.103-0.904,4.573-1.737l0.007-0.003c1.079-0.616,2.061-1.335,2.963-2.125c0.8-0.707,1.517-1.486,2.161-2.31
			c1.611-2.048,2.706-4.402,3.295-6.903v-0.005c0.469-1.996,0.641-4.062,0.394-6.13c-0.028-0.303-0.088-0.6-0.144-0.907
			C47.209,25.979,46.914,24.981,46.556,23.998z"/>
		<path fill="#C32E30" d="M17.565,17.438c0.146-0.147,0.272-0.309,0.425-0.451l-8.334-9.04C9.328,8.246,9.212,8.352,8.899,8.663
			C7.6,9.96,6.26,11.564,5.23,13.083l10.172,6.948C16.035,19.102,16.754,18.241,17.565,17.438z"/>
		<path fill="#F6B72D" d="M15.402,20.031L5.23,13.083c-2.342,3.432-3.636,6.438-4.511,10.495C0.714,23.58,0.714,23.58,0.714,23.58
			l12.029,2.624C13.225,24,14.123,21.915,15.402,20.031z"/>
		<path fill="#EB5D30" d="M12.743,26.204L0.714,23.58c-0.003,0-0.003,0-0.003,0c-0.785,3.607-0.915,6.743-0.415,10.397l12.154-1.644
			C12.174,30.266,12.303,28.204,12.743,26.204z"/>
		<path fill="#C32E30" d="M12.451,32.333L0.296,33.977H0.294c0.304,2.278,0.853,4.423,1.661,6.578l11.509-4.357
			C12.985,34.929,12.624,33.639,12.451,32.333z"/>
		<path fill="#EE5E2D" d="M13.464,36.198L1.955,40.555c0.32,0.844,0.638,1.58,1.029,2.4l11.102-5.348
			C13.86,37.147,13.644,36.678,13.464,36.198z"/>
		<path fill="#C32E30" d="M14.085,37.608L2.983,42.956c0.258,0.527,0.525,1.05,0.805,1.549c3.516-2.001,6.916-3.936,10.667-6.071
			C14.307,38.163,14.217,37.883,14.085,37.608z"/>
		<path fill="#F6B72D" d="M14.583,38.731c-0.056-0.096-0.076-0.201-0.128-0.298c-3.75,2.136-7.15,4.07-10.667,6.071
			c2.102,3.849,4.835,6.948,8.443,9.6l7.255-9.89C17.548,42.792,15.851,40.96,14.583,38.731z"/>
		<path fill="#C32E30" d="M19.486,44.214l-7.255,9.89l0.003,0.005c3.626,2.662,7.477,4.426,11.502,5.281
			c0.97-4.035,1.941-8.064,2.912-12.095C24.074,46.799,21.623,45.792,19.486,44.214z"/>
		<path fill="#F6B72D" d="M26.648,47.295c-0.971,4.03-1.942,8.06-2.912,12.095c4.246,0.903,8.698,0.809,13.301-0.319l-2.912-11.964
			C31.636,47.713,29.102,47.768,26.648,47.295z"/>
		<path fill="#C32E30" d="M38.705,45.367c2.007,3.536,4.012,7.068,6.055,10.665c1.791-1.006,3.468-2.199,5.025-3.597
			c-2.709-3.07-5.408-6.128-8.118-9.193C40.766,44.032,39.784,44.75,38.705,45.367z"/>
		<path fill="#EB5D30" d="M38.698,45.37c-1.47,0.833-3.016,1.357-4.573,1.737l2.912,11.964c2.8-0.682,5.368-1.703,7.723-3.039
			c-2.043-3.597-4.048-7.129-6.055-10.665L38.698,45.37z"/>
		<path fill="#F6B72D" d="M41.668,43.242c2.709,3.065,5.409,6.123,8.118,9.193c1.29-1.167,2.507-2.458,3.645-3.903l-9.602-7.6
			C43.185,41.755,42.468,42.535,41.668,43.242z"/>
		<path fill="#C32E30" d="M43.829,40.932l9.602,7.6c2.854-3.625,4.577-7.186,5.639-11.675l-11.945-2.828
			C46.535,36.53,45.44,38.884,43.829,40.932z"/>
		<path fill="#F6B72D" d="M59.664,26.461l-12.145,1.433c0.247,2.067,0.075,4.134-0.394,6.13l11.94,2.826l0.004,0.007
			C59.911,33.257,60.093,30.135,59.664,26.461z"/>
		<polygon fill="#909293" points="47.125,34.024 47.125,34.029 59.069,36.857 59.065,36.85 		"/>
		<path fill="#C32E30" d="M47.519,27.894l12.145-1.433c-0.053-0.438-0.153-1.109-0.222-1.547l-12.066,2.072
			C47.43,27.294,47.49,27.591,47.519,27.894z"/>
		<path fill="#EE5E2D" d="M47.375,26.987l12.066-2.072c-0.308-1.814-0.715-3.324-1.329-5.056l-11.557,4.139
			C46.914,24.981,47.209,25.979,47.375,26.987z"/>
		<path fill="#F6B72D" d="M46.556,23.998l11.557-4.139c-0.768-2.162-1.503-3.682-2.706-5.643l-10.461,6.465
			C45.066,20.871,46.218,23.062,46.556,23.998z"/>
		<path fill="#EE5E2D" d="M44.945,20.681l10.461-6.465c-1.208-1.956-2.587-3.679-4.204-5.319l-8.741,8.658
			C43.391,18.492,44.228,19.516,44.945,20.681z"/>
		<path fill="#C32E30" d="M40.058,15.583c0.84,0.591,1.664,1.225,2.403,1.972l8.741-8.658c-1.214-1.229-2.459-2.25-3.742-3.189
			c-1.866,2.47-3.746,4.934-5.583,7.403C41.265,13.934,40.659,14.758,40.058,15.583z"/>
		<path fill="#EE5E2D" d="M40.058,15.583c0.601-0.825,1.208-1.649,1.819-2.473c1.837-2.47,3.716-4.934,5.583-7.403
			c-2.148-1.572-4.423-2.846-7.128-3.849l-4.287,11.58C37.473,13.961,38.806,14.704,40.058,15.583z"/>
		<path fill="#F6B72D" d="M30.071,6.171l-0.03,6.172c2.062,0.011,4.081,0.378,6.004,1.096l4.287-11.58
			C36.87,0.58,33.783,0.02,30.103,0l0,0l0,0L30.071,6.171z"/>
		<path fill="#EB5D30" d="M30.041,12.342l0.03-6.171L30.103,0l0,0c-3.222-0.015-6.188,0.432-9.252,1.414l3.72,11.701
			C26.369,12.533,28.207,12.33,30.041,12.342z"/>
		<path fill="#C32E30" d="M24.57,13.116l-3.72-11.701c-1.308,0.425-2.159,0.754-3.408,1.324l5.156,11.226
			C23.253,13.667,23.898,13.328,24.57,13.116z"/>
		<path fill="#F6B72D" d="M22.599,13.964L17.443,2.739c-2.088,0.969-3.982,2.105-5.796,3.516l7.546,9.768
			C19.838,15.52,22.14,14.178,22.599,13.964z"/>
		<path fill="#EB5D30" d="M19.193,16.022l-7.546-9.768c-0.72,0.555-1.328,1.072-1.991,1.692l8.334,9.04
			C18.363,16.639,18.782,16.339,19.193,16.022z"/>
	</g>
	<g>
		<g>
			<g>
				<path fill="#C32E30" d="M68.988,43.916c-1.093,0-1.85-0.122-2.545-0.242v-3.397c0.486,0.183,1.151,0.305,1.877,0.305
					c1.423,0,2.241-0.608,2.241-2.82V17.173h3.936v20.739C74.498,41.278,73.135,43.916,68.988,43.916z"/>
				<path fill="#C32E30" d="M89.061,37.667c0-0.696,0.03-1.848,0.181-2.697l-0.061-0.03c-0.879,1.79-2.633,3.033-5.087,3.033
					c-3.42,0-4.511-2.184-4.511-4.82v-7.61c-0.727-0.123-1.728-0.245-2.604-0.304v-2.427c1.998-0.241,4.39-0.331,6.479-0.272v9.673
					c0,1.576,0.425,2.515,1.847,2.515c1.968,0,3.513-2.244,3.513-4.88v-7.276h3.846v12.098c0.727,0.12,1.756,0.242,2.634,0.302
					v2.425C93.391,37.639,91.059,37.73,89.061,37.667z"/>
				<path fill="#C32E30" d="M116.825,37.639v-9.552c0-1.607-0.364-2.607-1.788-2.607c-1.695,0-3.453,2.001-3.453,4.941v7.218h-3.814
					v-9.552c0-1.485-0.302-2.607-1.788-2.607c-1.786,0-3.452,2.123-3.452,4.941v7.218h-3.846V25.542
					c-0.727-0.123-1.754-0.245-2.634-0.304v-2.427c1.908-0.241,4.271-0.331,6.269-0.272c0,0.729-0.062,1.85-0.182,2.728h0.031
					c0.909-1.849,2.725-3.031,4.966-3.031c2.663,0,3.784,1.577,4.148,3.031c0.697-1.484,2.36-3.031,4.905-3.031
					c2.907,0,4.513,1.608,4.513,5.034v10.369H116.825z"/>
				<path fill="#C32E30" d="M123.238,25.239v-2.427c1.909-0.241,4.209-0.331,6.208-0.272c0,0.756-0.029,1.759-0.15,2.547h0.061
					c0.847-1.76,2.453-2.82,4.722-2.82c3.572,0,5.513,2.577,5.513,7.034c0,5.245-2.725,8.551-7.935,8.551
					c-0.727,0-1.303-0.03-1.939-0.121v7.216h-3.845V25.542C125.146,25.419,124.116,25.297,123.238,25.239z M132.958,25.45
					c-2.028,0-3.241,2.365-3.241,4.942v4.185c0.607,0.182,1.243,0.272,2.031,0.272c2.21,0,3.784-1.396,3.784-5.124
					C135.532,26.906,134.716,25.45,132.958,25.45z"/>
				<path fill="#C32E30" d="M146.582,37.973c-1.453,0-2.907-0.152-4.177-0.485l0.24-3.669c1.15,0.394,2.788,0.727,4.271,0.727
					c1.998,0,3.543-0.818,3.543-2.697c0-3.911-8.572-2.123-8.572-8.854c0-3.639,2.879-6.155,7.784-6.155
					c1.15,0,2.483,0.151,3.693,0.363l-0.212,3.458c-1.15-0.334-2.422-0.546-3.663-0.546c-2.271,0-3.421,1.03-3.421,2.486
					c0,3.668,8.599,2.304,8.599,8.701C154.667,35.151,151.607,37.973,146.582,37.973z"/>
				<path fill="#C32E30" d="M163.052,37.944c-3.333,0-4.36-1.214-4.36-4.731v-7.642h-2.604v-3h2.575v-4.639l3.876-1.033v5.672h3.663
					v3h-3.663v6.611c0,1.94,0.453,2.486,1.785,2.486c0.637,0,1.333-0.092,1.878-0.245v3.126
					C165.233,37.791,164.111,37.944,163.052,37.944z"/>
				<path fill="#C32E30" d="M177.402,37.667c0-0.875,0.03-1.787,0.149-2.575l-0.027-0.03c-0.728,1.697-2.574,2.882-4.815,2.882
					c-2.726,0-4.3-1.547-4.3-3.973c0-3.609,3.573-5.521,8.691-5.521v-0.817c0-1.577-0.759-2.395-2.939-2.395
					c-1.361,0-3.177,0.454-4.452,1.181l-0.333-3.243c1.515-0.545,3.453-0.94,5.392-0.94c4.845,0,6.207,1.94,6.207,5.245v7.188
					c0.728,0.12,1.757,0.242,2.634,0.302v2.425C181.703,37.639,179.371,37.73,177.402,37.667z M177.101,30.969
					c-4.09,0-4.997,1.182-4.997,2.396c0,0.969,0.663,1.605,1.787,1.605c1.907,0,3.21-1.817,3.21-3.639V30.969z"/>
				<path fill="#C32E30" d="M190.109,25.602h0.062c0.727-1.912,2.181-3.577,4.785-3.366l-0.182,3.82
					c-2.786-0.576-4.178,1.243-4.178,5.427v6.156h-3.847V25.542c-0.725-0.123-1.755-0.245-2.633-0.304v-2.427
					c1.909-0.241,4.241-0.331,6.268-0.272C190.383,23.327,190.293,24.542,190.109,25.602z"/>
				<path fill="#C32E30" d="M203.264,37.944c-3.331,0-4.362-1.214-4.362-4.731v-7.642H196.3v-3h2.575v-4.639l3.874-1.033v5.672
					h3.665v3h-3.665v6.611c0,1.94,0.456,2.486,1.786,2.486c0.636,0,1.334-0.092,1.879-0.245v3.126
					C205.443,37.791,204.323,37.944,203.264,37.944z"/>
			</g>
		</g>
		<path fill="#C32E30" d="M217.665,16.79c-0.892-0.348-1.915-0.562-2.953-0.562c-2.194,0-3.776,1.388-3.776,3.881
			c0,2.361,1.285,3.749,3.546,3.749c0.528,0,0.989-0.067,1.419-0.199V19.78h2.141v5.316c-1.103,0.444-2.472,0.693-3.807,0.693
			c-3.53,0-5.625-2.081-5.625-5.481c0-3.503,2.375-5.994,6.235-5.994c1.106,0,2.193,0.198,3.148,0.479L217.665,16.79z"/>
		<path fill="#C32E30" d="M226.935,21.859h-5.08c-0.015,1.537,0.741,2.279,2.259,2.279c0.809,0,1.683-0.183,2.393-0.511l0.195,1.632
			c-0.872,0.349-1.909,0.53-2.933,0.53c-2.607,0-4.056-1.306-4.056-4.195c0-2.51,1.384-4.357,3.843-4.357
			c2.387,0,3.445,1.633,3.445,3.664C227,21.182,226.983,21.512,226.935,21.859z M223.487,18.786c-0.873,0-1.482,0.646-1.598,1.637
			h3.017C224.938,19.398,224.379,18.786,223.487,18.786z"/>
	</g>
</g>
</svg>
