<?xml version="1.0" encoding="utf-8"?>
<!-- Generator: Adobe Illustrator 16.0.0, SVG Export Plug-In . SVG Version: 6.00 Build 0)  -->
<!DOCTYPE svg PUBLIC "-//W3C//DTD SVG 1.1//EN" "http://www.w3.org/Graphics/SVG/1.1/DTD/svg11.dtd">
<svg version="1.1" id="Layer_1" xmlns="http://www.w3.org/2000/svg" xmlns:xlink="http://www.w3.org/1999/xlink" x="0px" y="0px"
	 width="20px" height="40px" viewBox="0 0 20 40" enable-background="new 0 0 20 40" xml:space="preserve">
<g>
	<path fill="#FFFFFF" d="M11.186,5.003c-1.284,1.821-2.332,4.035-3.069,6.516h6.466c0.261-2.371,0.633-4.595,1.114-6.516H11.186z"/>
	<path fill="#FFFFFF" d="M14.449,12.829H7.763c-0.498,2.037-0.789,4.229-0.833,6.515h7.202
		C14.149,17.155,14.257,14.948,14.449,12.829z"/>
	<path fill="#FFFFFF" d="M15.752,12.829c-0.181,1.982-0.292,4.16-0.31,6.515H20v-6.515H15.752z"/>
	<path fill="#FFFFFF" d="M15.697,34.998c-0.481-1.922-0.853-4.146-1.114-6.516H8.117c0.737,2.481,1.786,4.694,3.069,6.516H15.697z"
		/>
	<path fill="#FFFFFF" d="M15.443,20.655c0.018,2.356,0.129,4.534,0.31,6.515H20v-6.515H15.443z"/>
	<path fill="#FFFFFF" d="M15.882,28.482c0.287,2.554,0.691,4.74,1.155,6.516H20v-6.516H15.882z"/>
	<path fill="#FFFFFF" d="M17.038,5.003c-0.464,1.776-0.869,3.961-1.155,6.516H20V5.003H17.038z"/>
	<path fill="#FFFFFF" d="M7.761,27.17h6.688c-0.192-2.119-0.3-4.325-0.317-6.515H6.929C6.974,22.943,7.265,25.134,7.761,27.17z"/>
	<path fill="#FFFFFF" d="M6.761,28.482h-4.89c1.173,2.498,2.846,4.712,4.893,6.516h2.879C8.438,33.117,7.454,30.916,6.761,28.482z"
		/>
	<path fill="#FFFFFF" d="M16.057,3.692c0.432-1.437,0.936-2.638,1.508-3.538c-0.171,0.019-0.343,0.04-0.511,0.063
		c-1.781,0.639-3.422,1.835-4.843,3.475L16.057,3.692L16.057,3.692z"/>
	<path fill="#FFFFFF" d="M9.643,5.003H6.764c-2.046,1.805-3.72,4.018-4.893,6.516H6.76C7.454,9.084,8.438,6.882,9.643,5.003z"/>
	<path fill="#FFFFFF" d="M17.415,36.31c0.594,1.873,1.255,3.119,1.881,3.673C19.531,39.991,19.765,40,20,40v-3.69H17.415z"/>
	<path fill="#FFFFFF" d="M12.211,36.31c1.42,1.639,3.062,2.833,4.84,3.473c0.17,0.025,0.341,0.043,0.513,0.065
		c-0.572-0.902-1.076-2.102-1.508-3.538L12.211,36.31L12.211,36.31z"/>
	<path fill="#FFFFFF" d="M10.562,36.31H8.421c1.316,0.933,2.749,1.712,4.273,2.311C11.937,37.945,11.223,37.172,10.562,36.31z"/>
	<path fill="#FFFFFF" d="M12.694,1.381C11.17,1.978,9.737,2.757,8.421,3.692h2.141C11.223,2.828,11.937,2.056,12.694,1.381z"/>
	<path fill="#FFFFFF" d="M6.422,12.829H1.314C0.532,14.862,0.073,17.055,0,19.344h5.617C5.662,17.068,5.941,14.879,6.422,12.829z"/>
	<path fill="#FFFFFF" d="M5.617,20.655H0c0.073,2.292,0.532,4.483,1.314,6.515h5.107C5.941,25.121,5.662,22.933,5.617,20.655z"/>
	<path fill="#FFFFFF" d="M19.296,0.018c-0.626,0.553-1.287,1.799-1.881,3.674H20V0C19.765,0,19.531,0.01,19.296,0.018z"/>
</g>
</svg>
