<?xml version="1.0" encoding="utf-8"?>
<!-- Generator: Adobe Illustrator 16.0.0, SVG Export Plug-In . SVG Version: 6.00 Build 0)  -->
<!DOCTYPE svg PUBLIC "-//W3C//DTD SVG 1.1//EN" "http://www.w3.org/Graphics/SVG/1.1/DTD/svg11.dtd">
<svg version="1.1" id="Layer_1" xmlns="http://www.w3.org/2000/svg" xmlns:xlink="http://www.w3.org/1999/xlink" x="0px" y="0px"
	 width="15px" height="15px" viewBox="0 0 15 15" enable-background="new 0 0 15 15" xml:space="preserve">
<g>
	<g>
		<path fill="#FFFFFF" d="M10.493,10.493c0.395-0.395,1.036-0.395,1.43,0l2.781,2.78c0.395,0.395,0.395,1.036,0,1.43
			C14.506,14.901,14.248,15,13.988,15c-0.258,0-0.518-0.099-0.715-0.297l-2.781-2.78C10.098,11.528,10.098,10.888,10.493,10.493
			 M1.686,5.795c0-2.266,1.843-4.109,4.11-4.109c2.266,0,4.109,1.843,4.109,4.109c0,2.267-1.843,4.11-4.109,4.11
			C3.529,9.905,1.686,8.062,1.686,5.795 M5.796,0C2.594,0,0,2.594,0,5.795c0,3.201,2.594,5.795,5.796,5.795
			c3.2,0,5.794-2.594,5.794-5.795C11.59,2.594,8.996,0,5.796,0"/>
	</g>
</g>
</svg>
