<?xml version="1.0" encoding="utf-8"?>
<!-- Generator: Adobe Illustrator 16.0.0, SVG Export Plug-In . SVG Version: 6.00 Build 0)  -->
<!DOCTYPE svg PUBLIC "-//W3C//DTD SVG 1.1//EN" "http://www.w3.org/Graphics/SVG/1.1/DTD/svg11.dtd">
<svg version="1.1" id="Layer_1" xmlns="http://www.w3.org/2000/svg" xmlns:xlink="http://www.w3.org/1999/xlink" x="0px" y="0px"
	 width="167px" height="143px" viewBox="0 0 167 143" enable-background="new 0 0 167 143" xml:space="preserve">
<g>
	<g>
		<path fill="#F78E69" stroke="#F78E69" stroke-width="0.5076" stroke-miterlimit="10" d="M76.858,30.629
			c-2.206,0-4.004,1.784-4.004,3.991c0,1.098,0.42,2.67,1.103,4.044c0.342,0.674,0.748,1.296,1.233,1.772
			c0.472,0.462,1.038,0.807,1.667,0.807c0.631,0,1.182-0.345,1.667-0.807c0.473-0.476,0.88-1.098,1.222-1.772
			c0.682-1.375,1.101-2.946,1.101-4.044C80.848,32.413,79.049,30.629,76.858,30.629L76.858,30.629z M76.858,31.369
			c1.799,0,3.242,1.454,3.242,3.25c0,0.886-0.382,2.446-1.011,3.702c-0.315,0.634-0.696,1.202-1.09,1.586
			c-0.395,0.383-0.775,0.581-1.143,0.581c-0.381,0-0.761-0.198-1.155-0.581c-0.38-0.384-0.775-0.953-1.09-1.586
			c-0.629-1.255-1.01-2.815-1.01-3.702C73.602,32.823,75.047,31.369,76.858,31.369L76.858,31.369z M66.475,52.291v-2.656
			c0-0.409,0.329-0.727,0.735-0.727l0,0h3.189c0.053,0.014,0.105,0.014,0.158,0h12.603c0.052,0.014,0.105,0.014,0.158,0h3.176
			c0.421,0,0.736,0.318,0.736,0.727v2.656h0.734v-2.657c0-0.779-0.604-1.4-1.366-1.467v-3.489c0-1.321-0.643-2.036-1.182-2.524
			c0,0,0-0.013-0.012-0.026l-1.877-1.48c0.051-0.397-0.132-0.806-0.488-1.005l-0.891-0.515c-0.472-0.277-1.09-0.106-1.352,0.357
			c-0.276,0.476-0.105,1.084,0.367,1.361l0.878,0.503c0.356,0.211,0.776,0.171,1.091-0.066l1.785,1.428l0.027,0.013
			c0.485,0.45,0.918,0.886,0.918,1.957v3.476h-2.285c-0.236-3.265-3.176-5.842-6.721-5.842c-3.558,0-6.485,2.577-6.734,5.842h-2.271
			v-3.476c0-1.07,0.42-1.507,0.905-1.957h0.012c0-0.013,0.014-0.013,0.014-0.013l1.797-1.428c0.304,0.237,0.737,0.278,1.09,0.066
			l0.879-0.503c0.474-0.263,0.643-0.885,0.368-1.361c-0.209-0.343-0.601-0.529-0.983-0.489l0,0
			c-0.131,0.013-0.263,0.066-0.381,0.132l-0.879,0.515c-0.367,0.199-0.539,0.595-0.472,0.992l-1.891,1.494
			c-0.013,0.013-0.013,0.026-0.026,0.026c-0.54,0.489-1.181,1.203-1.181,2.524v3.489c-0.762,0.066-1.365,0.688-1.365,1.467v2.657
			H66.475z M72.028,39.736c0.091-0.015,0.183,0.026,0.235,0.118c0.079,0.119,0.041,0.277-0.092,0.344l-0.878,0.515
			c-0.118,0.066-0.263,0.027-0.328-0.092c-0.078-0.133-0.052-0.265,0.079-0.345l0.892-0.514
			C71.962,39.749,71.988,39.736,72.028,39.736L72.028,39.736z M81.584,39.749c0.065-0.013,0.132,0,0.185,0.026l0.893,0.503
			c0.131,0.079,0.158,0.211,0.091,0.344c-0.079,0.118-0.223,0.144-0.342,0.078l-0.878-0.502c-0.118-0.067-0.17-0.212-0.091-0.344
			C81.479,39.801,81.532,39.762,81.584,39.749L81.584,39.749z M76.858,43.052c3.176,0,5.75,2.274,5.986,5.102H70.871
			C71.108,45.326,73.681,43.052,76.858,43.052L76.858,43.052z"/>
	</g>
	<g>
		<path fill="#5D675B" d="M45.531,73.928h-2.176v-4.442c-0.031-1.196-0.98-2.146-2.176-2.176l-0.031-2.206
			c1.227,0,2.207-0.98,2.207-2.206c0-0.275-0.062-0.521-0.153-0.766L39.277,51.87h2.36l3.556,9.312
			c0.184,0.521,0.337,1.103,0.337,1.716c0,1.318-0.583,2.482-1.502,3.308c0.95,0.828,1.502,1.992,1.502,3.31V73.928z"/>
		<path fill="#5D675B" d="M48.504,56.25c0.031-2.419,1.993-4.38,4.415-4.38c1.317,0,2.482,0.583,3.311,1.501
			c0.796-0.918,1.992-1.501,3.311-1.501c2.421,0,4.383,1.961,4.383,4.38v17.615h-2.176V56.189c-0.031-1.195-1.012-2.144-2.208-2.144
			c-1.227,0-2.207,0.979-2.238,2.175l-2.176,0.03v-0.061c-0.031-1.195-1.012-2.144-2.207-2.144c-1.227,0-2.208,0.979-2.208,2.175
			v17.645h-2.207V56.25z"/>
		<path fill="#F78E69" d="M75.326,51.84v2.206h-4.415c-1.226,0-2.207,1.01-2.207,2.205c0,0.276,0.062,0.552,0.153,0.797l6.469,16.88
			h-2.361l-6.1-15.961c-0.215-0.521-0.337-1.103-0.337-1.716c0-2.359,1.962-4.411,4.383-4.411H75.326z"/>
		<path fill="#F78E69" d="M80.475,73.928h-2.176V56.312c0-2.42,1.961-4.38,4.384-4.38c2.453,0,4.414,1.96,4.414,4.38v17.616h-2.207
			V56.281c0-1.226-0.98-2.174-2.207-2.174c-1.196,0-2.208,0.979-2.208,2.174V73.928z"/>
		<path fill="#5D675B" d="M94.788,58.52c3.544,0.414,4.109,2.79,4.109,4.379s0,6.618,0,6.618c0,2.419-2.023,4.412-4.415,4.412
			c-2.452,0-4.414-1.992-4.414-4.412v-6.618c0-2.052,1.41-3.83,3.342-4.289v-6.74h2.207v8.792h-1.196
			c-1.194,0-2.146,1.012-2.176,2.175v6.709c0.03,1.194,1.011,2.174,2.237,2.174c1.196,0,2.176-0.949,2.207-2.144
			c0,0,0-5.645,0-6.678s-0.636-2.24-1.901-2.236V58.52z"/>
		<path fill="#5D675B" d="M104.047,73.928h-2.177V56.312c0-2.42,1.962-4.38,4.384-4.38c2.452,0,4.414,1.96,4.414,4.38v17.616h-2.207
			V56.281c0-1.226-0.982-2.174-2.207-2.174c-1.196,0-2.207,0.979-2.207,2.174V73.928z"/>
		<path fill="#5D675B" d="M118.055,73.928h-2.177V62.837c-0.031-1.194-0.981-2.144-2.177-2.175h-0.062v-2.175h0.062
			c1.195-0.031,2.146-0.979,2.177-2.175V51.84h2.177v4.411c0,1.318-0.583,2.543-1.503,3.309c0.92,0.828,1.503,2.022,1.503,3.339
			V73.928z"/>
		<path fill="#5D675B" d="M120.414,71.752h4.414c1.227-0.031,2.207-1.012,2.207-2.206c0-0.275-0.062-0.552-0.153-0.796
			l-6.468-16.849h2.36l6.101,15.93c0.184,0.521,0.337,1.103,0.337,1.715c0,2.389-1.961,4.381-4.384,4.381h-4.414V71.752z"/>
		<path fill="#5D675B" d="M39.333,86.135h1.999v12.723c0.592-0.338,1.296-0.562,2.057-0.562c2.225,0,4.028,1.828,4.028,4.053v4.053
			h-2v-4.082c-0.028-1.125-0.929-1.998-2.028-1.998c-1.126,0-2.028,0.902-2.057,1.998v4.082h-1.999V86.135z"/>
		<path fill="#5D675B" d="M51.106,106.4h-2V90.217c0-2.225,1.802-4.025,4.028-4.025c2.252,0,4.055,1.801,4.055,4.025V106.4h-2.027
			V90.188c0-1.125-0.901-1.996-2.027-1.996c-1.099,0-2.028,0.9-2.028,1.996V106.4z"/>
		<path fill="#5D675B" d="M59.218,86.135h2v16.24c0.029,1.098,0.93,1.998,2.028,1.998c1.127,0,2.028-0.871,2.057-1.969v-6.193
			c-0.029-1.098-0.901-1.969-2-1.969h-0.057v-2.027h0.057c1.099-0.029,1.971-0.9,2-1.998v-4.082h2v4.053
			c0,1.211-0.507,2.281-1.38,3.041c0.873,0.76,1.38,1.801,1.38,3.039v6.08c0,2.279-1.832,4.053-4.057,4.053
			c-2.252,0-4.028-1.773-4.028-4.053V86.135z"/>
		<path fill="#5D675B" d="M71.182,98.322h2.204c2.225,0,4.028,1.801,4.028,4.053c0,2.225-1.803,4.053-4.028,4.053
			c-2.253,0-4.056-1.828-4.056-4.053V86.162h1.999v16.213c0,1.127,0.93,2.027,2.057,2.027s2.028-0.9,2.028-2.027
			c0-1.125-0.901-2.027-2-2.055h-2.231V98.322z"/>
		<path fill="#88D877" d="M85.884,104.791c2.355,0,4.264-1.877,4.264-4.232c0-2.354-1.908-4.26-4.264-4.26v-2.146
			c1.462,0,2.653-1.191,2.653-2.652s-1.191-2.652-2.653-2.652s-2.654,1.191-2.654,2.652l-2.147-0.148c0-2.295,1.7-4.65,4.801-4.65
			c3.101,0,4.801,2.355,4.801,4.65c0,1.49-0.716,2.98-2.177,3.783c2.505,0.924,3.757,3.219,3.757,5.545
			c0,3.1-2.266,6.256-6.381,6.256s-6.381-3.156-6.381-6.256l2.116-0.121C81.619,102.914,83.528,104.791,85.884,104.791z"/>
		<path fill="#5D675B" d="M98.828,106.373h-1.999v-16.24c-0.028-1.07-0.901-2-2-2H92.83v-2.025h1.944
			c2.225,0,4.054,1.801,4.054,4.053V106.373z"/>
		<path fill="#5D675B" d="M107.223,99.34c1.499,0.912,1.408,3.008,1.408,3.008c0,2.252-1.803,4.053-4.056,4.053
			c-2.226,0-4.056-1.801-4.056-4.053c0-2.141,1.803-4.053,3.999-4.053c1.184,0,2.084-0.9,2.084-2.027c0-1.125-0.9-2.025-2.027-2.025
			c-2.196,0-4.056-1.773-4.056-3.998v-4.109h2v4.053c0.027,1.154,0.929,2.027,2.056,2.027c2.225,0,4.056,1.828,4.056,4.053
			c0,2.223-1.803,4.053-4.056,4.053c-1.127,0-2.028,0.93-2.028,2.027c0,1.125,0.901,2.055,2.028,2.055s2.057-0.865,2.057-2.055
			c0-0.863-0.792-2.027-2.057-2.027L107.223,99.34z"/>
		<path fill="#5D675B" d="M117.215,100.32h-2.134c-1.098,0.027-1.998,0.93-1.998,2.027c0,1.125,0.9,2.055,2.027,2.055
			c1.126,0,2.056-0.93,2.056-2.055V90.133c-0.029-1.1-0.93-1.973-2.056-1.973c-1.127,0-2.027,0.902-2.027,2l-2.028,0.027
			c0-1.125-0.901-2.027-2-2.027h-1.999v-2.025h1.97c1.212,0,2.311,0.535,3.042,1.379c0.733-0.844,1.832-1.379,3.043-1.379
			c2.253,0,4.056,1.803,4.056,4.053v12.16c0,2.252-1.803,4.053-4.056,4.053c-2.226,0-4.056-1.801-4.056-4.053
			c0-2.225,1.802-4.025,4.056-4.025h2.104V100.32z"/>
		<path fill="#5D675B" d="M123.193,106.4h-1.998V90.217c0-2.225,1.803-4.025,4.027-4.025c2.253,0,4.055,1.801,4.055,4.025V106.4
			h-2.026V90.188c0-1.125-0.902-1.996-2.028-1.996c-1.099,0-2.029,0.9-2.029,1.996V106.4z"/>
	</g>
</g>
</svg>
