<?xml version="1.0" encoding="utf-8"?>
<!-- Generator: Adobe Illustrator 16.0.0, SVG Export Plug-In . SVG Version: 6.00 Build 0)  -->
<!DOCTYPE svg PUBLIC "-//W3C//DTD SVG 1.1//EN" "http://www.w3.org/Graphics/SVG/1.1/DTD/svg11.dtd">
<svg version="1.1" id="Layer_1" xmlns="http://www.w3.org/2000/svg" xmlns:xlink="http://www.w3.org/1999/xlink" x="0px" y="0px"
	 width="31px" height="15px" viewBox="0 0 31 15" enable-background="new 0 0 31 15" xml:space="preserve">
<path fill="#F78E69" d="M7.5,1C11.09,1,14,3.91,14,7.5S11.09,14,7.5,14S1,11.09,1,7.5S3.91,1,7.5,1 M7.5,0C3.364,0,0,3.364,0,7.5
	S3.364,15,7.5,15S15,11.636,15,7.5S11.636,0,7.5,0L7.5,0z"/>
<path fill="#F78E69" d="M23.5,1C27.09,1,30,3.91,30,7.5S27.09,14,23.5,14S17,11.09,17,7.5S19.91,1,23.5,1 M23.5,0
	C19.364,0,16,3.364,16,7.5s3.364,7.5,7.5,7.5S31,11.636,31,7.5S27.636,0,23.5,0L23.5,0z"/>
<circle fill="#F78E69" cx="7.5" cy="7.5" r="4"/>
</svg>
