<?xml version="1.0" encoding="utf-8"?>
<!-- Generator: Adobe Illustrator 16.0.0, SVG Export Plug-In . SVG Version: 6.00 Build 0)  -->
<!DOCTYPE svg PUBLIC "-//W3C//DTD SVG 1.1//EN" "http://www.w3.org/Graphics/SVG/1.1/DTD/svg11.dtd">
<svg version="1.1" id="Layer_1" xmlns="http://www.w3.org/2000/svg" xmlns:xlink="http://www.w3.org/1999/xlink" x="0px" y="0px"
	 width="24px" height="21px" viewBox="0 0 24 21" enable-background="new 0 0 24 21" xml:space="preserve">
<g>
	<path fill="#FFFFFF" d="M19.212,3.072c0-0.283-0.105-0.531-0.283-0.709c-0.178-0.177-0.461-0.318-0.709-0.284l-6.592,0.143
		c-0.566,0-0.991,0.496-0.956,1.027c0,0.566,0.495,0.993,1.027,0.957l4.111-0.071L8.475,11.47c-0.39,0.391-0.39,1.028,0,1.418
		c0.391,0.39,1.028,0.39,1.418,0l7.336-7.335l-0.142,4.04c0,0.566,0.424,0.991,0.955,1.027c0.567,0,0.992-0.426,1.028-0.957
		L19.212,3.072z"/>
	<path fill="#FFFFFF" d="M22.004,8.001c-0.311,0-0.935,0.053-1.009,0.985v6.433c0,1.403-1.553,1.503-2.004,1.503H5.009
		c-0.451,0-2.004-0.1-2.004-1.503V6.448c0-1.062,0.836-1.938,1.883-2.001c0.041-0.002,1.773-0.004,1.814-0.004
		c0.551,0,1.002-0.451,1.002-1.002S7.253,2.439,6.702,2.439c-0.042,0-1.775,0-1.816,0.001C2.735,2.507,1,4.285,1,6.448v8.971
		c0,2.055,1.653,3.508,4.009,3.508h13.982c2.354,0,4.009-1.453,4.009-3.508V8.986C23,8.123,22.314,8.001,22.004,8.001z"/>
</g>
</svg>
