<?xml version="1.0" encoding="utf-8"?>
<!-- Generator: Adobe Illustrator 16.0.0, SVG Export Plug-In . SVG Version: 6.00 Build 0)  -->
<!DOCTYPE svg PUBLIC "-//W3C//DTD SVG 1.1//EN" "http://www.w3.org/Graphics/SVG/1.1/DTD/svg11.dtd">
<svg version="1.1" id="Layer_1" xmlns="http://www.w3.org/2000/svg" xmlns:xlink="http://www.w3.org/1999/xlink" x="0px" y="0px"
	 width="20px" height="19px" viewBox="0 0 20 19" enable-background="new 0 0 20 19" xml:space="preserve">
<g>
	<path fill="#0EA3C6" d="M6.626,17.885c7.333-0.181,11.338-6.232,11.338-11.491
		c0-0.175-0.004-0.349-0.012-0.523C18.754,5.301,19.45,4.59,20,3.78c-0.736,0.322-1.527,0.538-2.357,0.636
		c0.848-0.5,1.499-1.292,1.806-2.235c-0.794,0.463-1.673,0.799-2.606,0.979c-0.749-0.785-1.815-1.275-2.996-1.275
		c-2.267,0-4.104,1.809-4.104,4.041c0,0.316,0.037,0.625,0.106,0.92C6.437,6.678,3.413,5.069,1.389,2.625
		c-0.354,0.596-0.556,1.291-0.556,2.03c0,1.402,0.724,2.639,1.825,3.363C1.985,7.998,1.354,7.816,0.8,7.514c0,0.017,0,0.034,0,0.051
		c0,1.957,1.414,3.591,3.292,3.961c-0.345,0.093-0.708,0.143-1.081,0.143c-0.266,0-0.522-0.026-0.772-0.073
		c0.521,1.605,2.037,2.772,3.834,2.805c-1.405,1.084-3.175,1.731-5.098,1.731c-0.329,0-0.655-0.02-0.975-0.057v0.002
		c1.753,1.105,3.821,1.764,6.046,1.808H6.626"/>
</g>
</svg>
