<?xml version="1.0" encoding="utf-8"?>
<!-- Generator: Adobe Illustrator 16.0.0, SVG Export Plug-In . SVG Version: 6.00 Build 0)  -->
<!DOCTYPE svg PUBLIC "-//W3C//DTD SVG 1.1//EN" "http://www.w3.org/Graphics/SVG/1.1/DTD/svg11.dtd">
<svg version="1.1" id="Layer_1" xmlns="http://www.w3.org/2000/svg" xmlns:xlink="http://www.w3.org/1999/xlink" x="0px" y="0px"
	 width="74px" height="87px" viewBox="-38.875 -18.375 74 87" enable-background="new -38.875 -18.375 74 87" xml:space="preserve">
<g>
	<path fill="#FFFFFF" d="M-19.663-15.376c0-0.283-0.104-0.531-0.282-0.709c-0.179-0.178-0.462-0.318-0.709-0.284l-6.593,0.144
		c-0.565,0-0.991,0.495-0.956,1.026c0,0.565,0.495,0.993,1.027,0.957l4.111-0.071L-30.4-6.979c-0.39,0.392-0.39,1.028,0,1.419
		c0.392,0.389,1.028,0.389,1.418,0l7.336-7.336l-0.142,4.04c0,0.566,0.425,0.991,0.955,1.027c0.567,0,0.992-0.427,1.028-0.957
		L-19.663-15.376z"/>
	<path fill="#FFFFFF" d="M-16.871-10.448c-0.311,0-0.936,0.054-1.009,0.985v6.433c0,1.403-1.554,1.503-2.004,1.503h-13.982
		c-0.45,0-2.004-0.1-2.004-1.503V-12c0-1.063,0.836-1.938,1.884-2.001c0.041-0.002,1.772-0.004,1.813-0.004
		c0.551,0,1.002-0.451,1.002-1.002s-0.451-1.002-1.002-1.002c-0.042,0-1.775,0-1.815,0c-2.152,0.067-3.887,1.846-3.887,4.009v8.971
		c0,2.056,1.653,3.508,4.009,3.508h13.982c2.354,0,4.009-1.452,4.009-3.508v-6.433C-15.875-10.326-16.561-10.448-16.871-10.448z"/>
</g>
<g>
	<path fill="#AEB3AD" d="M-19.663,28.623c0-0.283-0.104-0.531-0.282-0.709c-0.179-0.178-0.462-0.318-0.709-0.283l-6.593,0.143
		c-0.565,0-0.991,0.496-0.956,1.027c0,0.564,0.495,0.992,1.027,0.957l4.111-0.072l-7.336,7.336c-0.39,0.391-0.39,1.027,0,1.418
		c0.392,0.389,1.028,0.389,1.418,0l7.336-7.336l-0.142,4.041c0,0.566,0.425,0.99,0.955,1.027c0.567,0,0.992-0.428,1.028-0.957
		L-19.663,28.623z"/>
	<path fill="#AEB3AD" d="M-16.871,33.553c-0.311,0-0.936,0.053-1.009,0.984v6.434c0,1.402-1.554,1.502-2.004,1.502h-13.982
		c-0.45,0-2.004-0.1-2.004-1.502V32c0-1.063,0.836-1.939,1.884-2.002c0.041-0.002,1.772-0.004,1.813-0.004
		c0.551,0,1.002-0.451,1.002-1.002s-0.451-1.002-1.002-1.002c-0.042,0-1.775,0-1.815,0c-2.152,0.068-3.887,1.846-3.887,4.01v8.971
		c0,2.055,1.653,3.508,4.009,3.508h13.982c2.354,0,4.009-1.453,4.009-3.508v-6.434C-15.875,33.674-16.561,33.553-16.871,33.553z"/>
</g>
<g>
	<path fill="#F78E69" d="M-19.663,50.873c0-0.283-0.104-0.531-0.282-0.709c-0.179-0.178-0.462-0.318-0.709-0.283l-6.593,0.143
		c-0.565,0-0.991,0.496-0.956,1.027c0,0.564,0.495,0.992,1.027,0.957l4.111-0.072l-7.336,7.336c-0.39,0.391-0.39,1.027,0,1.418
		c0.392,0.389,1.028,0.389,1.418,0l7.336-7.336l-0.142,4.041c0,0.566,0.425,0.99,0.955,1.027c0.567,0,0.992-0.428,1.028-0.957
		L-19.663,50.873z"/>
	<path fill="#F78E69" d="M-16.871,55.803c-0.311,0-0.936,0.053-1.009,0.984v6.434c0,1.402-1.554,1.502-2.004,1.502h-13.982
		c-0.45,0-2.004-0.1-2.004-1.502V54.25c0-1.063,0.836-1.939,1.884-2.002c0.041-0.002,1.772-0.004,1.813-0.004
		c0.551,0,1.002-0.451,1.002-1.002s-0.451-1.002-1.002-1.002c-0.042,0-1.775,0-1.815,0c-2.152,0.068-3.887,1.846-3.887,4.01v8.971
		c0,2.055,1.653,3.508,4.009,3.508h13.982c2.354,0,4.009-1.453,4.009-3.508v-6.434C-15.875,55.924-16.561,55.803-16.871,55.803z"/>
</g>
<g>
	<path fill="#2E302D" d="M-19.663,6.748c0-0.283-0.104-0.531-0.282-0.709c-0.179-0.178-0.462-0.318-0.709-0.283l-6.593,0.143
		c-0.565,0-0.991,0.496-0.956,1.027c0,0.564,0.495,0.992,1.027,0.957l4.111-0.072l-7.336,7.336c-0.39,0.391-0.39,1.027,0,1.418
		c0.392,0.389,1.028,0.389,1.418,0l7.336-7.336l-0.142,4.041c0,0.566,0.425,0.99,0.955,1.027c0.567,0,0.992-0.428,1.028-0.957
		L-19.663,6.748z"/>
	<path fill="#2E302D" d="M-16.871,11.678c-0.311,0-0.936,0.053-1.009,0.984v6.434c0,1.402-1.554,1.502-2.004,1.502h-13.982
		c-0.45,0-2.004-0.1-2.004-1.502v-8.971c0-1.063,0.836-1.939,1.884-2.002c0.041-0.002,1.772-0.004,1.813-0.004
		c0.551,0,1.002-0.451,1.002-1.002s-0.451-1.002-1.002-1.002c-0.042,0-1.775,0-1.815,0c-2.152,0.068-3.887,1.846-3.887,4.01v8.971
		c0,2.055,1.653,3.508,4.009,3.508h13.982c2.354,0,4.009-1.453,4.009-3.508v-6.434C-15.875,11.799-16.561,11.678-16.871,11.678z"/>
</g>
<g>
	<path fill="#AEB3AD" d="M9.134,36.832c0.192-0.189,0.291-0.425,0.291-0.661c0-0.235-0.098-0.519-0.291-0.659l-4.609-4.291
		c-0.387-0.377-1.019-0.328-1.359,0.047c-0.387,0.378-0.337,0.991,0.05,1.32l2.861,2.688l0.889,0.886l-0.889,1l-2.861,2.593
		c-0.388,0.377-0.388,0.941-0.05,1.32c0.39,0.375,0.972,0.375,1.359,0.046L9.134,36.832z"/>
	<path fill="#AEB3AD" d="M-12.785,35.492c-0.192,0.188-0.291,0.425-0.291,0.66c0,0.234,0.098,0.518,0.291,0.659l4.609,4.29
		c0.387,0.377,1.019,0.329,1.359-0.048c0.387-0.377,0.337-0.99-0.05-1.32l-2.861-2.687l-0.889-0.886l0.889-0.999l2.861-2.594
		c0.388-0.376,0.388-0.941,0.05-1.319c-0.39-0.376-0.972-0.376-1.359-0.046L-12.785,35.492z"/>
	<path fill="#AEB3AD" d="M-4.333,45.899c-0.104,0-0.21-0.015-0.316-0.043c-0.646-0.175-1.028-0.841-0.854-1.484l4.607-17.052
		c0.174-0.646,0.836-1.025,1.485-0.854c0.646,0.175,1.028,0.839,0.854,1.484l-4.607,17.053C-3.311,45.544-3.799,45.899-4.333,45.899
		z"/>
</g>
<g>
	<path fill="#AEB3AD" d="M22.272,41.396c0.201,0.2,0.451,0.301,0.703,0.301c0.25,0,0.551-0.101,0.701-0.301l4.56-4.761
		c0.401-0.4,0.352-1.053-0.05-1.403c-0.401-0.4-1.053-0.351-1.403,0.05l-2.856,2.957V27.865c0-0.552-0.451-1.003-1.002-1.003
		s-1.002,0.451-1.002,1.003v10.373l-2.757-2.957c-0.4-0.4-1.002-0.4-1.402-0.05c-0.401,0.401-0.401,1.003-0.051,1.403L22.272,41.396
		z"/>
	<path fill="#AEB3AD" d="M29.991,29.117c-0.552,0-1.003,0.451-1.003,1.003c0,0.551,0.451,1.002,1.003,1.002
		c1.102,0,2.004,0.901,2.004,2.005v8.971c0,1.402-1.553,1.503-2.004,1.503H16.009c-0.451,0-2.004-0.101-2.004-1.503v-8.971
		c0-1.104,0.902-2.005,2.004-2.005c0.552,0,1.003-0.451,1.003-1.002c0-0.552-0.451-1.003-1.003-1.003
		c-2.205,0-4.009,1.805-4.009,4.01v8.971c0,2.055,1.653,3.508,4.009,3.508h13.982c2.354,0,4.009-1.453,4.009-3.508v-8.971
		C34,30.872,32.196,29.117,29.991,29.117z"/>
</g>
<g>
	<path fill="#F78E69" d="M9.134,58.832c0.192-0.189,0.291-0.425,0.291-0.661c0-0.235-0.098-0.519-0.291-0.659l-4.609-4.291
		c-0.387-0.377-1.019-0.328-1.359,0.047c-0.387,0.378-0.337,0.991,0.05,1.32l2.861,2.688l0.889,0.886l-0.889,1l-2.861,2.593
		c-0.388,0.377-0.388,0.941-0.05,1.32c0.39,0.375,0.972,0.375,1.359,0.046L9.134,58.832z"/>
	<path fill="#F78E69" d="M-12.785,57.492c-0.192,0.188-0.291,0.425-0.291,0.66c0,0.234,0.098,0.518,0.291,0.659l4.609,4.29
		c0.387,0.377,1.019,0.329,1.359-0.048c0.387-0.377,0.337-0.99-0.05-1.32l-2.861-2.687l-0.889-0.886l0.889-0.999l2.861-2.594
		c0.388-0.376,0.388-0.941,0.05-1.319c-0.39-0.376-0.972-0.376-1.359-0.046L-12.785,57.492z"/>
	<path fill="#F78E69" d="M-4.333,67.899c-0.104,0-0.21-0.015-0.316-0.043c-0.646-0.175-1.028-0.841-0.854-1.484l4.607-17.052
		c0.174-0.646,0.836-1.025,1.485-0.854c0.646,0.175,1.028,0.839,0.854,1.484l-4.607,17.053C-3.311,67.544-3.799,67.899-4.333,67.899
		z"/>
</g>
<g>
	<path fill="#F78E69" d="M22.273,63.415c0.201,0.2,0.451,0.301,0.703,0.301c0.25,0,0.551-0.101,0.701-0.301l4.559-4.761
		c0.402-0.4,0.352-1.053-0.049-1.403c-0.402-0.4-1.053-0.351-1.404,0.05l-2.855,2.957V49.885c0-0.552-0.451-1.003-1.002-1.003
		s-1.002,0.451-1.002,1.003v10.373l-2.758-2.957c-0.4-0.4-1.002-0.4-1.402-0.05c-0.4,0.401-0.4,1.003-0.051,1.403L22.273,63.415z"/>
	<path fill="#F78E69" d="M29.992,51.137c-0.553,0-1.004,0.451-1.004,1.003c0,0.551,0.451,1.002,1.004,1.002
		c1.102,0,2.004,0.901,2.004,2.005v8.971c0,1.402-1.553,1.503-2.004,1.503H16.01c-0.451,0-2.004-0.101-2.004-1.503v-8.971
		c0-1.104,0.902-2.005,2.004-2.005c0.551,0,1.002-0.451,1.002-1.002c0-0.552-0.451-1.003-1.002-1.003
		c-2.205,0-4.009,1.805-4.009,4.01v8.971c0,2.055,1.654,3.508,4.009,3.508h13.982c2.354,0,4.008-1.453,4.008-3.508v-8.971
		C34,52.892,32.197,51.137,29.992,51.137z"/>
</g>
<g>
	<path fill="#2E302D" d="M22.273,18.959c0.201,0.2,0.451,0.301,0.703,0.301c0.25,0,0.551-0.101,0.701-0.301l4.559-4.761
		c0.402-0.4,0.352-1.053-0.049-1.403c-0.402-0.4-1.053-0.351-1.404,0.05l-2.855,2.957V5.429c0-0.552-0.451-1.003-1.002-1.003
		s-1.002,0.451-1.002,1.003v10.373l-2.758-2.957c-0.4-0.4-1.002-0.4-1.402-0.05c-0.4,0.401-0.4,1.003-0.051,1.403L22.273,18.959z"/>
	<path fill="#2E302D" d="M29.992,6.681c-0.553,0-1.004,0.451-1.004,1.003c0,0.551,0.451,1.002,1.004,1.002
		c1.102,0,2.004,0.901,2.004,2.005v8.971c0,1.402-1.553,1.503-2.004,1.503H16.01c-0.451,0-2.004-0.101-2.004-1.503V10.69
		c0-1.104,0.902-2.005,2.004-2.005c0.551,0,1.002-0.451,1.002-1.002c0-0.552-0.451-1.003-1.002-1.003c-2.205,0-4.01,1.805-4.01,4.01
		v8.971c0,2.055,1.654,3.508,4.01,3.508h13.982c2.354,0,4.008-1.453,4.008-3.508V10.69C34,8.436,32.197,6.681,29.992,6.681z"/>
</g>
<g>
	<path fill="#2E302D" d="M9.134,14.832c0.192-0.189,0.291-0.425,0.291-0.661c0-0.235-0.098-0.519-0.291-0.659L4.525,9.221
		C4.138,8.844,3.506,8.893,3.166,9.268c-0.387,0.378-0.337,0.991,0.05,1.32l2.861,2.688l0.889,0.886l-0.889,1l-2.861,2.593
		c-0.388,0.377-0.388,0.941-0.05,1.32c0.39,0.375,0.972,0.375,1.359,0.046L9.134,14.832z"/>
	<path fill="#2E302D" d="M-12.785,13.492c-0.192,0.188-0.291,0.425-0.291,0.66c0,0.234,0.098,0.518,0.291,0.659l4.609,4.29
		c0.387,0.377,1.019,0.329,1.359-0.048c0.387-0.377,0.337-0.99-0.05-1.32l-2.861-2.687l-0.889-0.886l0.889-0.999l2.861-2.594
		c0.388-0.376,0.388-0.941,0.05-1.319c-0.39-0.376-0.972-0.376-1.359-0.046L-12.785,13.492z"/>
	<path fill="#2E302D" d="M-4.333,23.899c-0.104,0-0.21-0.015-0.316-0.043c-0.646-0.175-1.028-0.841-0.854-1.484L-0.896,5.32
		c0.174-0.646,0.836-1.025,1.485-0.854c0.646,0.175,1.028,0.839,0.854,1.484l-4.607,17.053C-3.311,23.544-3.799,23.899-4.333,23.899
		z"/>
</g>
<g>
	<path fill="#FFFFFF" d="M22.272-2.229c0.201,0.2,0.451,0.301,0.703,0.301c0.25,0,0.551-0.101,0.701-0.301l4.56-4.761
		c0.401-0.4,0.352-1.053-0.05-1.403c-0.401-0.4-1.053-0.351-1.403,0.05l-2.856,2.957V-15.76c0-0.552-0.451-1.003-1.002-1.003
		s-1.002,0.451-1.002,1.003v10.373l-2.757-2.957c-0.4-0.4-1.002-0.4-1.402-0.05c-0.401,0.401-0.401,1.003-0.051,1.403L22.272-2.229z
		"/>
	<path fill="#FFFFFF" d="M29.991-14.508c-0.552,0-1.003,0.451-1.003,1.003c0,0.551,0.451,1.002,1.003,1.002
		c1.102,0,2.004,0.901,2.004,2.005v8.971c0,1.402-1.553,1.503-2.004,1.503H16.009c-0.451,0-2.004-0.101-2.004-1.503v-8.971
		c0-1.104,0.902-2.005,2.004-2.005c0.552,0,1.003-0.451,1.003-1.002c0-0.552-0.451-1.003-1.003-1.003
		c-2.205,0-4.009,1.805-4.009,4.01v8.971c0,2.055,1.653,3.508,4.009,3.508h13.982C32.346,1.98,34,0.527,34-1.527v-8.971
		C34-12.753,32.196-14.508,29.991-14.508z"/>
</g>
<g>
	<path fill="#FFFFFF" d="M9.134-7.168c0.192-0.189,0.291-0.425,0.291-0.661c0-0.235-0.098-0.519-0.291-0.659l-4.609-4.291
		c-0.387-0.377-1.019-0.328-1.359,0.047c-0.387,0.378-0.337,0.991,0.05,1.32l2.861,2.688l0.889,0.886l-0.889,1L3.216-4.246
		c-0.388,0.377-0.388,0.941-0.05,1.32c0.39,0.375,0.972,0.375,1.359,0.046L9.134-7.168z"/>
	<path fill="#FFFFFF" d="M-12.785-8.508c-0.192,0.188-0.291,0.425-0.291,0.66c0,0.234,0.098,0.518,0.291,0.659l4.609,4.29
		c0.387,0.377,1.019,0.329,1.359-0.048c0.387-0.377,0.337-0.99-0.05-1.32l-2.861-2.687l-0.889-0.886l0.889-0.999l2.861-2.594
		c0.388-0.376,0.388-0.941,0.05-1.319c-0.39-0.376-0.972-0.376-1.359-0.046L-12.785-8.508z"/>
	<path fill="#FFFFFF" d="M-4.333,1.899c-0.104,0-0.21-0.015-0.316-0.043c-0.646-0.175-1.028-0.841-0.854-1.484l4.607-17.052
		c0.174-0.646,0.836-1.025,1.485-0.854c0.646,0.175,1.028,0.839,0.854,1.484L-3.165,1.004C-3.311,1.544-3.799,1.899-4.333,1.899z"/>
</g>
</svg>
