<?xml version="1.0" encoding="utf-8"?>
<!-- Generator: Adobe Illustrator 16.0.0, SVG Export Plug-In . SVG Version: 6.00 Build 0)  -->
<!DOCTYPE svg PUBLIC "-//W3C//DTD SVG 1.1//EN" "http://www.w3.org/Graphics/SVG/1.1/DTD/svg11.dtd">
<svg version="1.1" id="Layer_1" xmlns="http://www.w3.org/2000/svg" xmlns:xlink="http://www.w3.org/1999/xlink" x="0px" y="0px"
	 width="74px" height="87px" viewBox="0 0 74 87" enable-background="new 0 0 74 87" xml:space="preserve">
<g>
	<path fill="#FFFFFF" d="M19.274,2.962c0-0.283-0.104-0.531-0.282-0.709c-0.179-0.178-0.462-0.318-0.709-0.284L11.69,2.113
		c-0.565,0-0.991,0.495-0.956,1.026c0,0.565,0.495,0.993,1.027,0.957l4.111-0.071l-7.335,7.334c-0.39,0.392-0.39,1.028,0,1.419
		c0.392,0.389,1.028,0.389,1.418,0l7.336-7.336l-0.142,4.04c0,0.566,0.425,0.991,0.955,1.027c0.567,0,0.992-0.427,1.028-0.957
		L19.274,2.962z"/>
	<path fill="#FFFFFF" d="M22.066,7.89c-0.311,0-0.936,0.054-1.009,0.985v6.433c0,1.403-1.554,1.503-2.004,1.503H5.071
		c-0.45,0-2.004-0.1-2.004-1.503v-8.97c0-1.063,0.836-1.938,1.884-2.001c0.041-0.002,1.772-0.004,1.813-0.004
		c0.551,0,1.002-0.451,1.002-1.002c0-0.551-0.451-1.002-1.002-1.002c-0.042,0-1.775,0-1.815,0C2.797,2.396,1.063,4.175,1.063,6.338
		v8.971c0,2.056,1.653,3.508,4.009,3.508h13.982c2.354,0,4.009-1.452,4.009-3.508V8.876C23.063,8.012,22.376,7.89,22.066,7.89z"/>
</g>
<g>
	<path fill="#AEB3AD" d="M19.274,46.961c0-0.283-0.104-0.531-0.282-0.709c-0.179-0.178-0.462-0.318-0.709-0.283l-6.593,0.143
		c-0.565,0-0.991,0.496-0.956,1.027c0,0.564,0.495,0.992,1.027,0.957l4.111-0.072l-7.336,7.336c-0.39,0.392-0.39,1.027,0,1.418
		c0.392,0.39,1.028,0.39,1.418,0l7.336-7.336l-0.142,4.041c0,0.566,0.425,0.99,0.955,1.027c0.567,0,0.992-0.428,1.028-0.957
		L19.274,46.961z"/>
	<path fill="#AEB3AD" d="M22.066,51.891c-0.311,0-0.936,0.053-1.009,0.984v6.434c0,1.402-1.554,1.502-2.004,1.502H5.071
		c-0.45,0-2.004-0.1-2.004-1.502v-8.971c0-1.063,0.836-1.939,1.884-2.002c0.041-0.002,1.772-0.004,1.813-0.004
		c0.551,0,1.002-0.451,1.002-1.002s-0.451-1.002-1.002-1.002c-0.042,0-1.775,0-1.815,0c-2.152,0.068-3.887,1.846-3.887,4.01v8.971
		c0,2.055,1.653,3.508,4.009,3.508h13.982c2.354,0,4.009-1.453,4.009-3.508v-6.434C23.063,52.012,22.376,51.891,22.066,51.891z"/>
</g>
<g>
	<path fill="#F78E69" d="M19.274,69.211c0-0.283-0.104-0.531-0.282-0.709c-0.179-0.178-0.462-0.318-0.709-0.283l-6.593,0.143
		c-0.565,0-0.991,0.496-0.956,1.027c0,0.564,0.495,0.992,1.027,0.957l4.111-0.072l-7.336,7.336c-0.39,0.392-0.39,1.027,0,1.418
		c0.392,0.39,1.028,0.39,1.418,0l7.336-7.336l-0.142,4.041c0,0.566,0.425,0.99,0.955,1.027c0.567,0,0.992-0.428,1.028-0.957
		L19.274,69.211z"/>
	<path fill="#F78E69" d="M22.066,74.141c-0.311,0-0.936,0.053-1.009,0.984v6.434c0,1.402-1.554,1.502-2.004,1.502H5.071
		c-0.45,0-2.004-0.1-2.004-1.502v-8.971c0-1.063,0.836-1.939,1.884-2.002c0.041-0.002,1.772-0.004,1.813-0.004
		c0.551,0,1.002-0.451,1.002-1.002s-0.451-1.002-1.002-1.002c-0.042,0-1.775,0-1.815,0c-2.152,0.068-3.887,1.846-3.887,4.01v8.971
		c0,2.055,1.653,3.508,4.009,3.508h13.982c2.354,0,4.009-1.453,4.009-3.508v-6.434C23.063,74.262,22.376,74.141,22.066,74.141z"/>
</g>
<g>
	<path fill="#2E302D" d="M19.274,25.086c0-0.283-0.104-0.531-0.282-0.709c-0.179-0.178-0.462-0.318-0.709-0.283l-6.593,0.143
		c-0.565,0-0.991,0.496-0.956,1.027c0,0.564,0.495,0.992,1.027,0.957l4.111-0.072l-7.336,7.336c-0.39,0.391-0.39,1.027,0,1.418
		c0.392,0.389,1.028,0.389,1.418,0l7.336-7.336l-0.142,4.041c0,0.566,0.425,0.99,0.955,1.027c0.567,0,0.992-0.428,1.028-0.957
		L19.274,25.086z"/>
	<path fill="#2E302D" d="M22.066,30.016c-0.311,0-0.936,0.053-1.009,0.984v6.434c0,1.402-1.554,1.502-2.004,1.502H5.071
		c-0.45,0-2.004-0.1-2.004-1.502v-8.971c0-1.063,0.836-1.939,1.884-2.002c0.041-0.002,1.772-0.004,1.813-0.004
		c0.551,0,1.002-0.451,1.002-1.002c0-0.551-0.451-1.002-1.002-1.002c-0.042,0-1.775,0-1.815,0c-2.152,0.068-3.887,1.846-3.887,4.01
		v8.971c0,2.055,1.653,3.508,4.009,3.508h13.982c2.354,0,4.009-1.453,4.009-3.508V31C23.063,30.137,22.376,30.016,22.066,30.016z"/>
</g>
<g>
	<path fill="#AEB3AD" d="M48.071,55.17c0.192-0.189,0.291-0.425,0.291-0.661c0-0.235-0.098-0.519-0.291-0.659l-4.608-4.291
		c-0.388-0.377-1.02-0.328-1.359,0.047c-0.387,0.379-0.337,0.991,0.05,1.32l2.861,2.688l0.889,0.887l-0.889,1l-2.861,2.593
		c-0.388,0.377-0.388,0.941-0.05,1.32c0.391,0.375,0.972,0.375,1.359,0.046L48.071,55.17z"/>
	<path fill="#AEB3AD" d="M26.152,53.83c-0.192,0.188-0.291,0.425-0.291,0.66c0,0.233,0.098,0.518,0.291,0.658l4.609,4.291
		c0.387,0.377,1.019,0.328,1.359-0.049c0.387-0.377,0.337-0.99-0.05-1.32l-2.861-2.687l-0.889-0.886l0.889-0.999l2.861-2.595
		c0.388-0.375,0.388-0.94,0.05-1.318c-0.39-0.376-0.972-0.376-1.359-0.046L26.152,53.83z"/>
	<path fill="#AEB3AD" d="M34.604,64.236c-0.104,0-0.21-0.015-0.316-0.043c-0.646-0.174-1.028-0.84-0.854-1.483l4.606-17.052
		c0.174-0.646,0.836-1.025,1.485-0.854c0.646,0.175,1.028,0.839,0.854,1.484l-4.607,17.053
		C35.626,63.882,35.139,64.236,34.604,64.236z"/>
</g>
<g>
	<path fill="#AEB3AD" d="M61.209,59.734c0.201,0.199,0.451,0.301,0.703,0.301c0.25,0,0.551-0.102,0.701-0.301l4.561-4.762
		c0.4-0.4,0.352-1.053-0.051-1.402c-0.4-0.4-1.053-0.352-1.402,0.05l-2.856,2.957V46.203c0-0.553-0.45-1.003-1.002-1.003
		c-0.551,0-1.002,0.45-1.002,1.003v10.373l-2.757-2.957c-0.4-0.4-1.002-0.4-1.402-0.051c-0.4,0.401-0.4,1.004-0.051,1.403
		L61.209,59.734z"/>
	<path fill="#AEB3AD" d="M68.929,47.455c-0.552,0-1.003,0.451-1.003,1.003c0,0.551,0.451,1.002,1.003,1.002
		c1.102,0,2.004,0.901,2.004,2.005v8.971c0,1.402-1.554,1.504-2.004,1.504H54.946c-0.45,0-2.004-0.102-2.004-1.504v-8.971
		c0-1.104,0.902-2.005,2.004-2.005c0.552,0,1.003-0.451,1.003-1.002c0-0.552-0.451-1.003-1.003-1.003
		c-2.205,0-4.009,1.805-4.009,4.01v8.971c0,2.055,1.652,3.508,4.009,3.508h13.982c2.354,0,4.009-1.453,4.009-3.508v-8.971
		C72.938,49.21,71.134,47.455,68.929,47.455z"/>
</g>
<g>
	<path fill="#F78E69" d="M48.071,77.17c0.192-0.189,0.291-0.425,0.291-0.661c0-0.235-0.098-0.519-0.291-0.659l-4.608-4.291
		c-0.388-0.377-1.02-0.328-1.359,0.047c-0.387,0.379-0.337,0.991,0.05,1.32l2.861,2.688l0.889,0.887l-0.889,1l-2.861,2.593
		c-0.388,0.377-0.388,0.941-0.05,1.32c0.391,0.375,0.972,0.375,1.359,0.046L48.071,77.17z"/>
	<path fill="#F78E69" d="M26.152,75.83c-0.192,0.188-0.291,0.425-0.291,0.66c0,0.233,0.098,0.518,0.291,0.658l4.609,4.291
		c0.387,0.377,1.019,0.328,1.359-0.049c0.387-0.377,0.337-0.99-0.05-1.32l-2.861-2.687l-0.889-0.886l0.889-0.999l2.861-2.595
		c0.388-0.375,0.388-0.94,0.05-1.318c-0.39-0.376-0.972-0.376-1.359-0.046L26.152,75.83z"/>
	<path fill="#F78E69" d="M34.604,86.236c-0.104,0-0.21-0.015-0.316-0.043c-0.646-0.174-1.028-0.84-0.854-1.483l4.606-17.052
		c0.174-0.646,0.836-1.025,1.485-0.854c0.646,0.175,1.028,0.839,0.854,1.484l-4.607,17.053
		C35.626,85.882,35.139,86.236,34.604,86.236z"/>
</g>
<g>
	<path fill="#F78E69" d="M61.211,81.753c0.201,0.2,0.451,0.301,0.703,0.301c0.25,0,0.551-0.101,0.7-0.301l4.56-4.761
		c0.401-0.4,0.352-1.053-0.049-1.403c-0.402-0.399-1.054-0.351-1.404,0.05l-2.855,2.957V68.223c0-0.552-0.451-1.003-1.002-1.003
		s-1.002,0.451-1.002,1.003v10.373l-2.758-2.957c-0.4-0.4-1.002-0.4-1.402-0.05c-0.399,0.401-0.399,1.003-0.051,1.403L61.211,81.753
		z"/>
	<path fill="#F78E69" d="M68.93,69.475c-0.553,0-1.004,0.451-1.004,1.004c0,0.551,0.451,1.002,1.004,1.002
		c1.102,0,2.004,0.9,2.004,2.004v8.972c0,1.401-1.553,1.503-2.004,1.503H54.947c-0.451,0-2.004-0.102-2.004-1.503v-8.972
		c0-1.104,0.902-2.004,2.004-2.004c0.551,0,1.002-0.451,1.002-1.002c0-0.553-0.451-1.004-1.002-1.004
		c-2.205,0-4.009,1.805-4.009,4.01v8.972c0,2.055,1.654,3.508,4.009,3.508H68.93c2.354,0,4.008-1.453,4.008-3.508v-8.972
		C72.938,71.23,71.135,69.475,68.93,69.475z"/>
</g>
<g>
	<path fill="#2E302D" d="M61.211,37.297c0.201,0.2,0.451,0.301,0.703,0.301c0.25,0,0.551-0.101,0.7-0.301l4.56-4.761
		c0.401-0.4,0.352-1.053-0.049-1.403c-0.402-0.4-1.054-0.351-1.404,0.05l-2.855,2.957V23.767c0-0.552-0.451-1.003-1.002-1.003
		s-1.002,0.451-1.002,1.003V34.14l-2.758-2.957c-0.4-0.4-1.002-0.4-1.402-0.05c-0.399,0.401-0.399,1.003-0.051,1.403L61.211,37.297z
		"/>
	<path fill="#2E302D" d="M68.93,25.019c-0.553,0-1.004,0.451-1.004,1.003c0,0.551,0.451,1.002,1.004,1.002
		c1.102,0,2.004,0.901,2.004,2.005V38c0,1.402-1.553,1.503-2.004,1.503H54.947c-0.451,0-2.004-0.101-2.004-1.503v-8.972
		c0-1.104,0.902-2.005,2.004-2.005c0.551,0,1.002-0.451,1.002-1.002c0-0.552-0.451-1.003-1.002-1.003c-2.205,0-4.01,1.805-4.01,4.01
		v8.971c0,2.055,1.654,3.508,4.01,3.508H68.93c2.354,0,4.008-1.453,4.008-3.508v-8.971C72.938,26.774,71.135,25.019,68.93,25.019z"
		/>
</g>
<g>
	<path fill="#2E302D" d="M48.071,33.17c0.192-0.189,0.291-0.425,0.291-0.661c0-0.235-0.098-0.519-0.291-0.659l-4.608-4.291
		c-0.388-0.377-1.02-0.328-1.359,0.047c-0.387,0.378-0.337,0.991,0.05,1.32l2.861,2.688l0.889,0.886l-0.889,1l-2.861,2.593
		c-0.388,0.377-0.388,0.941-0.05,1.32c0.391,0.375,0.972,0.375,1.359,0.046L48.071,33.17z"/>
	<path fill="#2E302D" d="M26.152,31.83c-0.192,0.188-0.291,0.425-0.291,0.66c0,0.234,0.098,0.518,0.291,0.659l4.609,4.29
		c0.387,0.377,1.019,0.329,1.359-0.048c0.387-0.377,0.337-0.99-0.05-1.32l-2.861-2.687l-0.889-0.886l0.889-0.999l2.861-2.594
		c0.388-0.376,0.388-0.941,0.05-1.319c-0.39-0.376-0.972-0.376-1.359-0.046L26.152,31.83z"/>
	<path fill="#2E302D" d="M34.604,42.237c-0.104,0-0.21-0.015-0.316-0.043c-0.646-0.175-1.028-0.841-0.854-1.484l4.606-17.052
		c0.174-0.646,0.836-1.025,1.485-0.854c0.646,0.175,1.028,0.839,0.854,1.484l-4.607,17.053
		C35.626,41.882,35.139,42.237,34.604,42.237z"/>
</g>
<g>
	<path fill="#FFFFFF" d="M61.209,16.109c0.201,0.2,0.451,0.301,0.703,0.301c0.25,0,0.551-0.102,0.701-0.301l4.561-4.761
		c0.4-0.4,0.352-1.053-0.051-1.403c-0.4-0.4-1.053-0.351-1.402,0.05l-2.856,2.957V2.578c0-0.552-0.45-1.003-1.002-1.003
		c-0.551,0-1.002,0.451-1.002,1.003v10.373l-2.757-2.957c-0.4-0.4-1.002-0.4-1.402-0.05c-0.4,0.401-0.4,1.003-0.051,1.403
		L61.209,16.109z"/>
	<path fill="#FFFFFF" d="M68.929,3.83c-0.552,0-1.003,0.451-1.003,1.003c0,0.551,0.451,1.002,1.003,1.002
		c1.102,0,2.004,0.901,2.004,2.005v8.971c0,1.402-1.554,1.503-2.004,1.503H54.946c-0.45,0-2.004-0.101-2.004-1.503V7.84
		c0-1.104,0.902-2.005,2.004-2.005c0.552,0,1.003-0.451,1.003-1.002c0-0.552-0.451-1.003-1.003-1.003
		c-2.205,0-4.009,1.805-4.009,4.01v8.971c0,2.055,1.652,3.508,4.009,3.508h13.982c2.354-0.001,4.009-1.454,4.009-3.508V7.84
		C72.938,5.585,71.134,3.83,68.929,3.83z"/>
</g>
<g>
	<path fill="#FFFFFF" d="M48.071,11.17c0.192-0.189,0.291-0.425,0.291-0.661c0-0.235-0.098-0.519-0.291-0.659l-4.608-4.291
		c-0.388-0.377-1.02-0.328-1.359,0.047c-0.387,0.378-0.337,0.991,0.05,1.32l2.861,2.688l0.889,0.886l-0.889,1l-2.861,2.592
		c-0.388,0.377-0.388,0.941-0.05,1.32c0.391,0.375,0.972,0.375,1.359,0.046L48.071,11.17z"/>
	<path fill="#FFFFFF" d="M26.152,9.83c-0.192,0.188-0.291,0.425-0.291,0.66c0,0.234,0.098,0.518,0.291,0.659l4.609,4.29
		c0.387,0.377,1.019,0.329,1.359-0.048c0.387-0.377,0.337-0.99-0.05-1.32l-2.861-2.687l-0.889-0.886l0.889-0.999l2.861-2.594
		c0.388-0.376,0.388-0.941,0.05-1.319C31.73,5.21,31.148,5.21,30.762,5.54L26.152,9.83z"/>
	<path fill="#FFFFFF" d="M34.604,20.237c-0.104,0-0.21-0.015-0.316-0.043c-0.646-0.175-1.028-0.841-0.854-1.484l4.606-17.052
		c0.174-0.646,0.836-1.025,1.485-0.854c0.646,0.175,1.028,0.839,0.854,1.484l-4.608,17.054
		C35.626,19.882,35.139,20.237,34.604,20.237z"/>
</g>
</svg>
