<?xml version="1.0" encoding="iso-8859-1"?>
<!-- Generator: Adobe Illustrator 19.1.0, SVG Export Plug-In . SVG Version: 6.00 Build 0)  -->
<svg xmlns="http://www.w3.org/2000/svg" xmlns:xlink="http://www.w3.org/1999/xlink" version="1.1" id="Capa_1" x="0px" y="0px" viewBox="0 0 480 480" style="enable-background:new 0 0 480 480;" xml:space="preserve" width="512px" height="512px">
	<g>
		<path d="M381.7,118.4c-7.4-0.6-13.9,4.9-14.5,12.4l-24.9,309.9c0,0.4,0,0.7,0,1.1c0,6.2-5,11.2-11.2,11.2H147.6    c-6.2,0-11.2-5-11.2-11.2c0-0.4,0-0.7,0-1.1l-24.9-309.9c-0.6-7.4-7.1-13-14.5-12.4s-13,7.1-12.4,14.5l24.9,309.5    c0.3,17.5,12.4,32.1,28.6,36.4c1.7,0.8,3.6,1.2,5.6,1.2h4h183.4h4c2,0,3.9-0.4,5.6-1.2c16.3-4.2,28.3-18.9,28.6-36.4L394.1,133    C394.7,125.5,389.1,119,381.7,118.4z" fill="#5D675B"/>
		<path d="M429.2,69.3H311.1V38.2c0-21-17.1-38.2-38.2-38.2h-65.8c-21,0-38.2,17.1-38.2,38.2v31.2h-118c-7.5,0-13.5,6-13.5,13.5    s6,13.5,13.5,13.5h378.2c7.5,0,13.5-6,13.5-13.5S436.6,69.3,429.2,69.3z M284.1,69.3h-88V38.2c0-6.2,5-11.2,11.2-11.2h65.8    c6.2,0,11.2,5,11.2,11.2v31.1H284.1z" fill="#5D675B"/>
	</g>
</svg>
