<?xml version="1.0" encoding="utf-8"?>
<!-- Generator: Adobe Illustrator 16.0.0, SVG Export Plug-In . SVG Version: 6.00 Build 0)  -->
<!DOCTYPE svg PUBLIC "-//W3C//DTD SVG 1.1//EN" "http://www.w3.org/Graphics/SVG/1.1/DTD/svg11.dtd">
<svg version="1.1" id="Layer_1" xmlns="http://www.w3.org/2000/svg" xmlns:xlink="http://www.w3.org/1999/xlink" x="0px" y="0px"
	 width="20px" height="20px" viewBox="0 0 20 20" enable-background="new 0 0 20 20" xml:space="preserve">
<g>
	<path fill="#88D877" d="M4.667,18c0,1.1-0.979,2-2,2s-2-0.9-2-2V2c0-1.1,0.979-2,2-2s2,0.9,2,2V18z"/>
	<path fill="#88D877" d="M9.667,18c0,1.104-0.896,2-2,2l0,0c-1.104,0-2-0.896-2-2V6c0-1.104,0.896-2,2-2l0,0c1.104,0,2,0.896,2,2V18
		z"/>
	<path fill="#88D877" d="M14.667,18c0,1.104-0.896,2-2,2l0,0c-1.104,0-2-0.896-2-2V9c0-1.104,0.896-2,2-2l0,0c1.104,0,2,0.896,2,2
		V18z"/>
	<path fill="#88D877" d="M19.667,18c0,1.104-0.896,2-2,2l0,0c-1.104,0-2-0.896-2-2v-5c0-1.104,0.896-2,2-2l0,0c1.104,0,2,0.896,2,2
		V18z"/>
</g>
</svg>
