<?xml version="1.0" encoding="utf-8"?>
<!-- Generator: Adobe Illustrator 16.0.0, SVG Export Plug-In . SVG Version: 6.00 Build 0)  -->
<!DOCTYPE svg PUBLIC "-//W3C//DTD SVG 1.1//EN" "http://www.w3.org/Graphics/SVG/1.1/DTD/svg11.dtd">
<svg version="1.1" id="Layer_1" xmlns="http://www.w3.org/2000/svg" xmlns:xlink="http://www.w3.org/1999/xlink" x="0px" y="0px"
	 width="20px" height="15px" viewBox="0 0 20 15" enable-background="new 0 0 20 15" xml:space="preserve">
<g>
	<path fill="#88D877" d="M0.378,3.8h9.956C10.556,5.355,12,6.756,13.711,6.756c1.711,0,3.156-1.4,3.378-2.956h2.533
		C19.822,3.8,20,3.666,20,3.467c0-0.2-0.178-0.334-0.378-0.334h-2.511C16.956,1.355,15.489,0,13.711,0s-3.244,1.355-3.4,3.133H0.378
		C0.178,3.133,0,3.267,0,3.467C0,3.666,0.178,3.8,0.378,3.8z M13.711,0.666c1.467,0,2.667,1.201,2.667,2.668
		C16.378,4.8,15.178,6,13.711,6s-2.667-1.2-2.667-2.666C11.044,1.867,12.244,0.666,13.711,0.666z"/>
	<path fill="#88D877" d="M19.622,11.133h-7.933c-0.267-1.555-1.667-2.866-3.378-2.866c-1.711,0-3.111,1.312-3.378,2.866H0.378
		c-0.2,0-0.378,0.134-0.378,0.334C0,11.666,0.178,11.8,0.378,11.8h4.533c0.111,1.778,1.6,3.2,3.4,3.2c1.8,0,3.289-1.422,3.4-3.2
		h7.911c0.2,0,0.378-0.134,0.378-0.333C20,11.267,19.822,11.133,19.622,11.133z M8.311,14.334c-1.467,0-2.667-1.201-2.667-2.668
		C5.645,10.2,6.844,9,8.311,9s2.667,1.2,2.667,2.666C10.978,13.133,9.778,14.334,8.311,14.334z"/>
</g>
</svg>
