<?xml version="1.0" encoding="utf-8"?>
<!-- Generator: Adobe Illustrator 16.0.0, SVG Export Plug-In . SVG Version: 6.00 Build 0)  -->
<!DOCTYPE svg PUBLIC "-//W3C//DTD SVG 1.1//EN" "http://www.w3.org/Graphics/SVG/1.1/DTD/svg11.dtd">
<svg version="1.1" id="Layer_1" xmlns="http://www.w3.org/2000/svg" xmlns:xlink="http://www.w3.org/1999/xlink" x="0px" y="0px"
	 width="20px" height="20px" viewBox="0 0 20 20" enable-background="new 0 0 20 20" xml:space="preserve">
<path fill="#88D877" d="M17,0H3C1.3,0,0,1.3,0,3v14c0,1.7,1.3,3,3,3h14c1.7,0,3-1.3,3-3V3C20,1.3,18.7,0,17,0z M8,2h4
	v4H8V2z M8,8h4v4H8V8z M2,3c0-0.601,0.399-1,1-1h3v4H2V3z M2,8h4v4H2V8z M6,18H3c-0.601,0-1-0.399-1-1v-3h4V18z M8,14h4v4H8V14z
	 M14,14h4v3c0,0.601-0.399,1-1,1h-3V14z M18,12h-4V8h4V12z M18,6h-4V2h3c0.601,0,1,0.399,1,1V6z"/>
</svg>
