<?xml version="1.0" encoding="utf-8"?>
<!-- Generator: Adobe Illustrator 16.0.0, SVG Export Plug-In . SVG Version: 6.00 Build 0)  -->
<!DOCTYPE svg PUBLIC "-//W3C//DTD SVG 1.1//EN" "http://www.w3.org/Graphics/SVG/1.1/DTD/svg11.dtd">
<svg version="1.1" id="Layer_1" xmlns="http://www.w3.org/2000/svg" xmlns:xlink="http://www.w3.org/1999/xlink" x="0px" y="0px"
	 width="29px" height="33px" viewBox="0 0 29 33" enable-background="new 0 0 29 33" xml:space="preserve">
<path fill="#F78E69" d="M14.5,28.702c-0.188,0-0.377-0.064-0.533-0.188c-5.959-4.792-8.68-9.267-9.915-12.183
	c-0.334-0.726-0.593-1.488-0.768-2.267c-0.05-0.21-0.073-0.34-0.08-0.384C3.069,12.967,3,12.239,3,11.514C3,5.166,8.159,0,14.5,0
	C20.841,0,26,5.166,26,11.514c0,0.725-0.069,1.451-0.203,2.165c-0.007,0.038-0.03,0.169-0.081,0.386
	c-0.176,0.778-0.434,1.541-0.769,2.267c-1.233,2.916-3.955,7.391-9.914,12.183C14.878,28.638,14.688,28.702,14.5,28.702z
	 M4.887,13.417c0.004,0.026,0.02,0.115,0.054,0.257c0.001,0.003,0.001,0.007,0.002,0.01c0.15,0.668,0.373,1.322,0.66,1.944
	c0.004,0.009,0.008,0.018,0.011,0.025C6.733,18.3,9.18,22.341,14.5,26.749c5.32-4.408,7.767-8.448,8.885-11.096
	c0.003-0.008,0.007-0.018,0.011-0.025c0.288-0.623,0.51-1.276,0.66-1.944c0.001-0.003,0.002-0.007,0.002-0.011
	c0.033-0.136,0.049-0.225,0.054-0.254c0.002-0.015,0.005-0.028,0.008-0.041c0.116-0.612,0.176-1.241,0.176-1.864
	c0-5.41-4.395-9.809-9.796-9.809c-5.402,0-9.797,4.401-9.797,9.809c0,0.625,0.06,1.252,0.178,1.864
	C4.882,13.39,4.884,13.403,4.887,13.417z M14.637,18.357c-3.864,0-7.007-3.147-7.007-7.014c0-3.868,3.144-7.015,7.007-7.015
	c1.405,0,2.759,0.414,3.918,1.198c0.39,0.264,0.492,0.794,0.229,1.184c-0.263,0.39-0.792,0.492-1.182,0.229
	c-0.877-0.593-1.903-0.906-2.965-0.906c-2.925,0-5.304,2.383-5.304,5.311c0,2.928,2.379,5.31,5.304,5.31s5.304-2.381,5.304-5.31
	c0-0.724-0.142-1.422-0.422-2.082c-0.185-0.434,0.017-0.933,0.449-1.118C20.4,7.959,20.9,8.161,21.084,8.593
	c0.371,0.872,0.559,1.796,0.559,2.75C21.644,15.21,18.5,18.357,14.637,18.357z M21.825,30.016c0-0.671-0.442-1.615-2.545-2.312
	c-0.318-0.104-0.661,0.067-0.766,0.387c-0.105,0.318,0.068,0.662,0.385,0.766c1.178,0.389,1.713,0.874,1.713,1.159
	c0,0.6-2.157,1.77-6.111,1.77s-6.111-1.17-6.111-1.77c0-0.277,0.515-0.75,1.646-1.136c0.317-0.108,0.486-0.454,0.379-0.771
	c-0.108-0.317-0.453-0.486-0.77-0.38c-2.04,0.695-2.468,1.628-2.468,2.287C7.175,31.974,10.861,33,14.5,33
	C18.14,33,21.825,31.974,21.825,30.016z"/>
</svg>
