<?xml version="1.0" encoding="utf-8"?>
<!-- Generator: Adobe Illustrator 16.0.0, SVG Export Plug-In . SVG Version: 6.00 Build 0)  -->
<!DOCTYPE svg PUBLIC "-//W3C//DTD SVG 1.1//EN" "http://www.w3.org/Graphics/SVG/1.1/DTD/svg11.dtd">
<svg version="1.1" id="Layer_1" xmlns="http://www.w3.org/2000/svg" xmlns:xlink="http://www.w3.org/1999/xlink" x="0px" y="0px"
	 width="29px" height="33px" viewBox="0 0 29 33" enable-background="new 0 0 29 33" xml:space="preserve">
<g>
	<path fill="#F78E69" d="M26.252,23.416H2.784c-0.431,0-0.763-0.351-0.763-0.77v-8.459c0,0,0.107-0.674,0.743-0.674
		c0.636,0,0.798,0.674,0.798,0.674v7.69h21.929v-10.35l-10.534,7.357c-0.282,0.185-0.646,0.185-0.911-0.016L2.303,9.821
		C2.038,9.62,1.939,9.27,2.038,8.952c0.1-0.317,0.398-0.536,0.729-0.536h18.5c0,0,0.652,0.077,0.652,0.828
		c0,0.751-0.652,0.728-0.652,0.728H5.035l9.475,7.308l11.279-7.892c0.232-0.168,0.547-0.185,0.795-0.05
		c0.248,0.133,0.414,0.399,0.414,0.685v12.607C27.032,23.064,26.684,23.416,26.252,23.416z"/>
</g>
</svg>
