<?xml version="1.0" encoding="utf-8"?>
<!-- Generator: Adobe Illustrator 16.0.0, SVG Export Plug-In . SVG Version: 6.00 Build 0)  -->
<!DOCTYPE svg PUBLIC "-//W3C//DTD SVG 1.1//EN" "http://www.w3.org/Graphics/SVG/1.1/DTD/svg11.dtd">
<svg version="1.1" id="Layer_1" xmlns="http://www.w3.org/2000/svg" xmlns:xlink="http://www.w3.org/1999/xlink" x="0px" y="0px"
	 width="55.056px" height="54.944px" viewBox="0 0 55.056 54.944" enable-background="new 0 0 55.056 54.944" xml:space="preserve">
<circle fill="#355EA8" cx="27.556" cy="27.443" r="27.5"/>
<g>
	<path fill="#FFFFFF" d="M31.307,17.447h0.243v-1.032h-0.243c-4.083,0-4.857,2.268-4.857,6.45v2.839h-2.186v1.032h2.186v11.869
		h0.971V26.736h4.128v-1.032h-4.128v-2.839C27.421,19.045,27.961,17.447,31.307,17.447z"/>
	<path fill="#FFFFFF" d="M29.421,40.605H24.45V28.736h-2.186v-5.032h2.186v-0.839c0-2.743,0-8.45,6.857-8.45h2.243v5.032h-2.243
		c-1.634,0-1.886,0-1.886,3.418v0.839h4.128v5.032h-4.128V40.605z"/>
</g>
</svg>
