<?xml version="1.0" encoding="utf-8"?>
<!-- Generator: Adobe Illustrator 16.0.0, SVG Export Plug-In . SVG Version: 6.00 Build 0)  -->
<!DOCTYPE svg PUBLIC "-//W3C//DTD SVG 1.1//EN" "http://www.w3.org/Graphics/SVG/1.1/DTD/svg11.dtd">
<svg version="1.1" id="Layer_1" xmlns="http://www.w3.org/2000/svg" xmlns:xlink="http://www.w3.org/1999/xlink" x="0px" y="0px"
	 width="29px" height="33px" viewBox="0 0 29 33" enable-background="new 0 0 29 33" xml:space="preserve">
<g>
	<path fill="#F78E69" d="M5.424,6.983c-0.668,0-1.318,0.283-1.881,0.818c-0.08,0.08-0.164,0.162-0.248,0.241
		c-0.152,0.146-0.3,0.287-0.434,0.442l-0.089,0.09c-0.281,0.279-0.562,0.558-0.841,0.81c-0.989,0.932-1.433,2.093-1.348,3.48
		c0.113,1.727,0.727,3.254,1.374,4.648c1.531,3.156,3.705,5.927,6.458,8.232c2.329,1.931,4.456,3.21,6.692,4.025
		c1.224,0.481,2.337,0.714,3.407,0.714c0.177,0,0.344,0,0.506-0.027c0.978-0.088,1.816-0.484,2.51-1.179l1.82-1.821
		c1.059-1.115,1.061-2.637,0-3.699c-0.332-0.332-0.662-0.663-0.992-0.964l-1.919-1.92c-1.129-1.129-2.66-1.13-3.791,0l-0.455,0.456
		c-0.112,0.112-0.228,0.225-0.345,0.338c-0.228,0.222-0.46,0.447-0.678,0.687l-0.116,0.127l-0.157-0.07
		c-0.695-0.315-1.38-0.821-1.959-1.275c-0.952-0.767-1.756-1.542-2.462-2.37c-0.272-0.318-0.815-0.354-1.149-0.065
		c-0.16,0.137-0.256,0.33-0.272,0.544c-0.017,0.221,0.056,0.438,0.204,0.608c0.809,0.902,1.684,1.738,2.672,2.551
		c1.038,0.8,1.875,1.309,2.792,1.695l0.052,0.026c0.132,0.039,0.274,0.078,0.447,0.078c0.307,0,0.592-0.13,0.85-0.387l0.066-0.069
		c0.41-0.44,0.797-0.855,1.244-1.271l0.443-0.443c0.187-0.187,0.433-0.395,0.735-0.395c0.302,0,0.548,0.208,0.729,0.389l1.426,1.425
		c0.063,0.064,0.124,0.127,0.183,0.19c0.104,0.111,0.204,0.217,0.316,0.311c0.324,0.354,0.625,0.655,0.926,0.956
		c0.211,0.235,0.666,0.75,0.035,1.421l-1.795,1.797c-0.426,0.395-0.892,0.606-1.475,0.674c-0.13,0.009-0.25,0.013-0.372,0.013
		c-0.83,0-1.738-0.191-2.861-0.601c-2.092-0.789-4.03-1.952-6.286-3.771c-2.584-2.155-4.604-4.734-6.009-7.668
		c-0.537-1.175-1.115-2.549-1.207-4.032c-0.065-0.885,0.172-1.533,0.772-2.099c0.299-0.253,0.558-0.519,0.809-0.775L4,9.617
		c0.134-0.156,0.28-0.295,0.426-0.435c0.07-0.066,0.14-0.133,0.21-0.204c0.506-0.505,0.98-0.508,1.458-0.031l2.912,2.915
		c0.227,0.224,0.343,0.443,0.343,0.651c0,0.246-0.115,0.487-0.342,0.715l-1.79,1.789c-0.161,0.161-0.25,0.371-0.25,0.591
		c0,0.221,0.088,0.431,0.25,0.592c0.321,0.321,0.859,0.321,1.181,0l1.79-1.791c0.558-0.559,0.84-1.196,0.84-1.896
		c0-0.648-0.297-1.288-0.836-1.8L7.306,7.828C6.754,7.275,6.104,6.983,5.424,6.983z M14.405,8.158c-0.401,0-0.75,0.297-0.812,0.692
		c-0.035,0.217,0.017,0.435,0.147,0.613c0.129,0.179,0.319,0.295,0.534,0.33c1.728,0.276,3.315,1.097,4.59,2.372
		c1.274,1.276,2.094,2.863,2.372,4.591c0.068,0.386,0.411,0.68,0.797,0.68h0.162c0.438-0.08,0.735-0.498,0.666-0.939
		c-0.356-2.081-1.341-3.978-2.846-5.483c-1.505-1.506-3.401-2.49-5.483-2.846C14.491,8.161,14.447,8.158,14.405,8.158z
		 M14.678,2.484c-0.401,0-0.75,0.297-0.812,0.692c-0.071,0.449,0.235,0.871,0.682,0.942c3.075,0.523,5.898,1.983,8.167,4.223
		c2.241,2.241,3.701,5.066,4.223,8.171c0.069,0.388,0.412,0.681,0.797,0.681c0.033,0,0.066,0,0.078-0.005l0.068-0.021
		c0.216-0.034,0.405-0.151,0.535-0.33s0.182-0.396,0.147-0.613c-0.597-3.433-2.22-6.556-4.695-9.031
		c-2.506-2.509-5.64-4.133-9.062-4.698C14.764,2.487,14.72,2.484,14.678,2.484z"/>
</g>
</svg>
