<?xml version="1.0" encoding="utf-8"?>
<!-- Generator: Adobe Illustrator 16.0.0, SVG Export Plug-In . SVG Version: 6.00 Build 0)  -->
<!DOCTYPE svg PUBLIC "-//W3C//DTD SVG 1.1//EN" "http://www.w3.org/Graphics/SVG/1.1/DTD/svg11.dtd">
<svg version="1.1" id="Layer_1" xmlns="http://www.w3.org/2000/svg" xmlns:xlink="http://www.w3.org/1999/xlink" x="0px" y="0px"
	 width="55px" height="54.945px" viewBox="0 0 55 54.945" enable-background="new 0 0 55 54.945" xml:space="preserve">
<circle fill="#0EA3C6" cx="27.5" cy="27.5" r="27.5"/>
<g>
	<path fill="#FFFFFF" d="M24.034,38.588c9.388-0.233,14.515-8.044,14.515-14.832
		c0-0.226-0.005-0.45-0.015-0.675c1.026-0.735,1.917-1.653,2.622-2.699c-0.942,0.415-1.955,0.694-3.018,0.821
		c1.085-0.646,1.918-1.668,2.311-2.885c-1.016,0.598-2.14,1.031-3.336,1.265c-0.959-1.014-2.324-1.646-3.836-1.646
		c-2.901,0-5.254,2.335-5.254,5.215c0,0.409,0.047,0.807,0.136,1.188c-4.367-0.218-8.238-2.294-10.829-5.448
		c-0.452,0.77-0.711,1.666-0.711,2.621c0,1.81,0.927,3.405,2.337,4.341c-0.861-0.027-1.671-0.262-2.38-0.652
		c0,0.021,0,0.044,0,0.065c0,2.526,1.811,4.635,4.215,5.113c-0.441,0.12-0.905,0.184-1.384,0.184c-0.339,0-0.668-0.033-0.989-0.094
		c0.669,2.072,2.609,3.579,4.908,3.621c-1.799,1.398-4.064,2.233-6.525,2.233c-0.422,0-0.839-0.025-1.248-0.073v0.003
		c2.244,1.427,4.893,2.277,7.741,2.334H24.034"/>
</g>
</svg>
